<?xml version="1.0" encoding="UTF-8"?>
<svg version="1.1" xmlns="http://www.w3.org/2000/svg" width="683" height="683">
<path d="M0 0 C225.39 0 450.78 0 683 0 C683 225.39 683 450.78 683 683 C457.61 683 232.22 683 0 683 C0 457.61 0 232.22 0 0 Z " fill="#D7EDE5" transform="translate(0,0)"/>
<path d="M0 0 C9.91265057 1.85129881 19.18162307 10.00961641 27 16 C27.84304688 16.60070312 28.68609375 17.20140625 29.5546875 17.8203125 C32.48688651 20.43399788 34.3161425 23.28573984 36.1875 26.6875 C36.56624268 27.37247559 36.94498535 28.05745117 37.33520508 28.76318359 C62.73166588 76.34201953 68.0477804 133.34122695 53 185 C43.7446864 215.09392972 28.78047309 245.745483 6 268 C4.74777755 269.28299085 3.49799855 270.56836883 2.25 271.85546875 C-18.96716935 293.56472456 -38.9921006 304.68231663 -69 309 C-70.36801758 309.19722656 -70.36801758 309.19722656 -71.76367188 309.3984375 C-74.77803614 309.82305227 -77.79438795 310.22793727 -80.8125 310.625 C-81.72330322 310.7482666 -82.63410645 310.8715332 -83.57250977 310.99853516 C-103.01887155 313.43122303 -122.6889007 313.20392142 -142.25 313.1875 C-142.91171833 313.18723312 -143.57343666 313.18696625 -144.25520706 313.18669128 C-202.97170053 313.15699188 -257.39931579 312.11483216 -301.1875 269.125 C-307.39235183 262.88735622 -312.77861876 256.06835944 -318 249 C-319.15628906 247.44345703 -319.15628906 247.44345703 -320.3359375 245.85546875 C-336.81979949 222.86481914 -347.66317751 196.23265096 -353.3125 168.5625 C-353.55178223 167.39267578 -353.55178223 167.39267578 -353.79589844 166.19921875 C-356.15740779 153.81302399 -356.21413762 141.33134747 -356.24023438 128.7668457 C-356.24989713 125.96730331 -356.28099386 123.16851049 -356.3125 120.36914062 C-356.40716308 104.3819112 -354.47209628 89.07991382 -350.3125 73.625 C-350.05686279 72.66932129 -349.80122559 71.71364258 -349.5378418 70.72900391 C-335.75045184 20.84782976 -335.75045184 20.84782976 -318.74609375 9.90625 C-317.65425781 9.4421875 -316.56242187 8.978125 -315.4375 8.5 C-314.34308594 8.0153125 -313.24867188 7.530625 -312.12109375 7.03125 C-309.17049996 6.05633541 -307.07284959 5.7711099 -304 6 C-303.40899964 12.72614697 -305.52744331 17.97078967 -307.9375 24.1875 C-308.67735603 26.13872653 -309.41569876 28.0905277 -310.15234375 30.04296875 C-310.6472229 31.32723755 -310.6472229 31.32723755 -311.15209961 32.63745117 C-313.97987417 40.51662607 -314.59439294 51.50178546 -311.875 59.5 C-305.81074688 70.81993916 -297.72712128 76.70336155 -285.66796875 81.0859375 C-274.7611878 83.80392125 -262.18239155 83.30943493 -252.421875 77.453125 C-249.86635671 75.72394197 -247.42976316 73.90083513 -245 72 C-244.40703125 71.57203125 -243.8140625 71.1440625 -243.203125 70.703125 C-232.75393524 62.64232147 -225.29672547 49.7658644 -217.94702148 39.01708984 C-209.41468552 26.60979034 -209.41468552 26.60979034 -204 23 C-201.09997797 23.1450011 -199.56505679 23.43347933 -197.4921875 25.51171875 C-195.37049338 29.049727 -194.58502856 32.69953578 -193.625 36.6875 C-193.19037702 38.39883825 -192.75414453 40.10976845 -192.31640625 41.8203125 C-192.09742676 42.68430664 -191.87844727 43.54830078 -191.65283203 44.43847656 C-185.99377529 66.71979971 -185.99377529 66.71979971 -170.23828125 82.69140625 C-155.12987889 90.71955859 -138.78442104 90.9137168 -122.578125 86.20703125 C-110.90106829 82.26793679 -103.88035178 75.73333176 -98 65 C-92.41131315 53.26837636 -90.03537798 40.42952935 -87.9375 27.6875 C-87.29221715 23.90881667 -86.36164083 21.113072 -84 18 C-80.07621894 18.20769657 -78.46080545 18.49576786 -75.76171875 21.44921875 C-75.07722656 22.51785156 -74.39273437 23.58648437 -73.6875 24.6875 C-73.30779053 25.26693359 -72.92808105 25.84636719 -72.53686523 26.44335938 C-71.3374688 28.28333973 -70.16612189 30.13878373 -69 32 C-67.5243086 34.33554815 -66.04514826 36.66886201 -64.5625 39 C-64.19552002 39.57782227 -63.82854004 40.15564453 -63.45043945 40.75097656 C-55.05982245 53.81072729 -45.3641874 67.8786042 -30 73 C-20.95716726 73.61978966 -12.95046705 73.90747856 -5 69 C-3.5459375 68.13375 -3.5459375 68.13375 -2.0625 67.25 C-1.381875 66.8375 -0.70125 66.425 0 66 C0.66 66 1.32 66 2 66 C2 65.34 2 64.68 2 64 C3.64429829 62.31126121 5.31384218 60.64694485 7 59 C12.03598742 53.40445842 12.35000183 46.89199114 12.18359375 39.6875 C11.38609783 28.01351717 5.15674953 17.09829461 0.0390625 6.8125 C-1.03369833 3.90878648 -1.14972958 2.81345591 0 0 Z " fill="#B60709" transform="translate(487,261)"/>
<path d="M0 0 C0.495 0.495 0.495 0.495 1 1 C2.62595914 1.0926322 4.25598257 1.11451695 5.88456917 1.10908127 C6.94874538 1.10798882 8.01292158 1.10689638 9.10934556 1.10577083 C10.8848977 1.09628567 10.8848977 1.09628567 12.69631958 1.08660889 C14.56598572 1.08259878 14.56598572 1.08259878 16.47342288 1.07850766 C19.22185546 1.07257399 21.97025319 1.06343415 24.71866798 1.05191422 C29.19081839 1.03319071 33.66297194 1.02128706 38.13514709 1.01028442 C43.78887038 0.99586513 49.44258329 0.97957997 55.09629492 0.96114901 C66.22978277 0.92489331 77.36326679 0.90100751 88.49679565 0.88165283 C90.25005441 0.87854216 92.00331316 0.87542449 93.75657189 0.87229991 C96.41450805 0.86757355 99.07244422 0.86285548 101.73038045 0.85816751 C111.76394133 0.84042582 121.79749921 0.82135502 131.83105469 0.80078125 C132.74855601 0.7989042 133.66605733 0.79702714 134.61136173 0.79509321 C149.42678265 0.76430927 164.24212651 0.71869019 179.05749227 0.66837153 C194.28679921 0.61708919 209.51606584 0.58524679 224.74545181 0.57022786 C234.12502436 0.56031006 243.50429678 0.53514106 252.88376598 0.48977116 C259.33434752 0.45995945 265.78479818 0.44894115 272.235447 0.45200631 C275.94473898 0.45321197 279.6535428 0.44670451 283.36273003 0.41743088 C300.51030113 0.28831243 316.42443814 1.35517144 333 6 C333.71131333 6.19905803 334.42262665 6.39811606 335.15549493 6.60320616 C339.02267353 7.70459225 342.82760994 8.9285639 346.625 10.25 C347.73601074 10.62914551 348.84702148 11.00829102 349.99169922 11.39892578 C357.46338888 13.99633427 364.83051862 16.81549333 372.125 19.875 C373.45845459 20.42849121 373.45845459 20.42849121 374.81884766 20.99316406 C376.02613525 21.51861816 376.02613525 21.51861816 377.2578125 22.0546875 C377.9605127 22.35874512 378.66321289 22.66280273 379.38720703 22.97607422 C381 24 381 24 382 27 C383.99206823 27.69000624 385.99368913 28.35257344 388 29 C398.07660424 35.35497841 408.9062157 43.95153567 412 56 C413.00349624 63.139159 412.49132671 68.85263386 408.546875 74.96875 C403.34953313 81.79354236 397.81484994 86.2108154 389.5625 88.75 C370.98879048 90.56206922 354.34813725 82.74903139 339 73 C338.34 72.34 337.68 71.68 337 71 C335.68 71 334.36 71 333 71 C331.83018863 69.86833465 330.66954302 68.7250719 329.56640625 67.52832031 C326.27931026 64.32114748 322.30216742 61.92530525 318.5 59.375 C317.65824219 58.80265625 316.81648438 58.2303125 315.94921875 57.640625 C309.01856715 52.27136196 309.01856715 52.27136196 301 50 C301.53894605 55.81494426 303.8896382 60.40696743 306.4375 65.5625 C312.16038324 77.30661584 316.72303106 88.50824606 312.875 101.75 C311.20351994 106.18861931 308.59208356 109.88819503 305 113 C304.34 113 303.68 113 303 113 C303 113.66 303 114.32 303 115 C301.0234375 116.4375 301.0234375 116.4375 298.375 118 C297.51648438 118.515625 296.65796875 119.03125 295.7734375 119.5625 C287.38067883 123.91254956 277.22979867 124.72029293 268.0859375 122.1953125 C249.79573103 113.77601111 238.76296998 93.79056052 228.734375 77.27734375 C227.72117187 75.65505859 227.72117187 75.65505859 226.6875 74 C226.11386719 73.05125 225.54023438 72.1025 224.94921875 71.125 C222.44312074 68.39290117 220.62452047 68.24538361 217 68 C214.54297131 73.98987502 213.19048166 79.69246691 212.125 86.0625 C209.77840713 99.06682055 206.63353601 110.97854632 199 122 C198.401875 122.9075 197.80375 123.815 197.1875 124.75 C187.50481946 134.70932855 173.77174894 138.86610201 160.20410156 139.28540039 C146.86502379 139.45926578 133.72831039 136.68606431 123.75 127.3125 C114.06685004 116.79157248 111.04678288 104.33918548 107.71875 90.8203125 C107.50420166 89.96429443 107.28965332 89.10827637 107.06860352 88.22631836 C106.65664776 86.56909288 106.25805937 84.90847078 105.87475586 83.24438477 C104.77877598 78.80138916 103.84358424 75.84455739 100 73 C96.15739942 73 93.73479762 75.52147012 91 78 C88.60009163 81.06520367 86.43047754 84.27642674 84.25 87.5 C83.00264339 89.3108205 81.75394872 91.12072005 80.50390625 92.9296875 C79.9020752 93.80334961 79.30024414 94.67701172 78.68017578 95.57714844 C68.02827508 110.93743071 55.62567842 128.25359204 36 132 C21.96504687 133.2091181 10.5349284 131.04717254 -1.0625 122.625 C-8.37847537 116.35810789 -12.29436032 110.16756217 -13.40625 100.44921875 C-13.70378531 88.51061446 -10.44819886 78.85227114 -6.15551758 67.83203125 C-4.47362755 63.45355303 -3.48276822 59.63457491 -3 55 C-9.85652124 56.7292996 -15.81717783 59.31226454 -22.08203125 62.5703125 C-25.9671944 64.47388641 -29.8606588 65.75819764 -34 67 C-34 67.66 -34 68.32 -34 69 C-35.84274565 69.69537572 -37.68600571 70.38940706 -39.53125 71.078125 C-41.22048482 71.70891522 -42.90790963 72.34456811 -44.59375 72.984375 C-47.38412966 74.0267582 -50.18516178 75.02563292 -53 76 C-53.8765625 76.30421875 -54.753125 76.6084375 -55.65625 76.921875 C-65.75552658 80.07047299 -77.91870259 80.6707163 -88 77 C-94.78927934 73.19167664 -99.73059289 67.40411066 -104 61 C-105.05805888 51.81159393 -104.71101106 43.57460415 -99 36 C-79.40706492 12.90288524 -49.76932292 3.40808925 -20.36328125 0.66015625 C-6.18911934 -0.45845328 -6.18911934 -0.45845328 0 0 Z " fill="#FE9471" transform="translate(186,212)"/>
<path d="M0 0 C1.04046579 -0.00507454 2.08093157 -0.01014909 3.15292662 -0.0153774 C4.29463877 -0.01587516 5.43635092 -0.01637292 6.61266041 -0.01688576 C7.82662662 -0.02126801 9.04059283 -0.02565027 10.29134589 -0.03016531 C13.66261358 -0.0412239 17.03383493 -0.04777585 20.40511405 -0.05234647 C24.04056953 -0.05830801 27.67600795 -0.06991638 31.31145191 -0.08063698 C40.09150544 -0.10514695 48.87156461 -0.11978535 57.65164182 -0.13269705 C60.13178074 -0.13640977 62.6119191 -0.14038293 65.09205747 -0.14444971 C80.49613719 -0.16968523 95.90021783 -0.19173647 111.30431366 -0.20417786 C114.87143615 -0.20710751 118.43855862 -0.21006918 122.00568104 -0.21308327 C123.33555164 -0.21420234 123.33555164 -0.21420234 124.69228832 -0.21534403 C139.05463627 -0.22799793 153.41686043 -0.26122251 167.77915051 -0.3028851 C182.52711327 -0.34531557 197.27501266 -0.3688741 212.0230363 -0.37409842 C220.3025346 -0.37751109 228.58183939 -0.38924941 236.86127758 -0.42220116 C243.91228242 -0.45021804 250.96305405 -0.46119382 258.01411023 -0.4500057 C261.61028761 -0.44482332 265.20597675 -0.44767755 268.80208302 -0.47247124 C272.70504132 -0.49915542 276.6073363 -0.48688895 280.51036549 -0.47098732 C281.64092403 -0.48486941 282.77148257 -0.49875149 283.93630046 -0.51305425 C291.0701617 -0.4414658 296.10161659 0.84458837 301.87897205 5.13701439 C307.89554543 11.30785888 308.18756723 17.22464573 308.1797533 25.44170189 C308.18403843 26.4390435 308.18832355 27.43638512 308.19273853 28.4639492 C308.1984722 30.57029526 308.1989892 32.67666111 308.19464588 34.78301048 C308.19148995 37.99380619 308.21494362 41.20367652 308.24030018 44.41435814 C308.24257377 46.46513823 308.24327639 48.51592079 308.2422533 50.56670189 C308.25146305 51.52108147 308.2606728 52.47546104 308.27016163 53.45876122 C308.21518795 61.43976599 306.51016539 67.16453661 300.87897205 73.13701439 C298.62897205 74.44951439 298.62897205 74.44951439 296.87897205 75.13701439 C296.87897205 73.81701439 296.87897205 72.49701439 296.87897205 71.13701439 C195.89897205 71.13701439 94.91897205 71.13701439 -9.12102795 71.13701439 C-9.12102795 72.12701439 -9.12102795 73.11701439 -9.12102795 74.13701439 C-14.44757411 71.85420889 -17.28837989 68.58471958 -19.49462414 63.23366356 C-20.68409386 59.25236479 -20.54725936 55.23443926 -20.51946545 51.10967064 C-20.52233562 50.16192268 -20.5252058 49.21417473 -20.52816296 48.23770714 C-20.53019624 46.24165306 -20.52471811 44.24557871 -20.51214123 42.24956322 C-20.49609517 39.21223948 -20.51200602 36.17624992 -20.5311842 33.13896751 C-20.52920129 31.19169898 -20.52535662 29.24443127 -20.51946545 27.29717064 C-20.52553814 26.39797401 -20.53161083 25.49877739 -20.53786755 24.57233238 C-20.45985108 17.49613877 -19.11208933 12.12360647 -15.12102795 6.13701439 C-14.46102795 6.13701439 -13.80102795 6.13701439 -13.12102795 6.13701439 C-13.12102795 5.47701439 -13.12102795 4.81701439 -13.12102795 4.13701439 C-11.80102795 3.80701439 -10.48102795 3.47701439 -9.12102795 3.13701439 C-9.12102795 2.47701439 -9.12102795 1.81701439 -9.12102795 1.13701439 C-6.01397873 0.22810004 -3.2323207 0.00838108 0 0 Z " fill="#FE9571" transform="translate(195.12102794647217,116.86298561096191)"/>
<path d="M0 0 C100.65 0 201.3 0 305 0 C305 7.92 305 15.84 305 24 C267.15571479 24.02260395 229.31143136 24.04050831 191.46714076 24.05106533 C186.99982234 24.05231604 182.53250394 24.05361037 178.06518555 24.05493164 C177.17581852 24.05519395 176.28645149 24.05545626 175.37013394 24.05572652 C160.96743984 24.06007846 146.56474973 24.06796341 132.16205799 24.0771528 C117.38485228 24.08650254 102.60764865 24.09205842 87.8304401 24.09408849 C78.71127978 24.09546097 69.59213074 24.09979672 60.47297389 24.10791647 C54.22061863 24.1132002 47.96826919 24.11480058 41.71591186 24.11350138 C38.1080372 24.11286055 34.50018225 24.11384672 30.8923111 24.11920547 C26.97987145 24.12497414 23.06745748 24.12298814 19.15501404 24.12025452 C18.01590134 24.12316736 16.87678863 24.1260802 15.70315737 24.12908131 C14.65116814 24.12709026 13.59917892 24.12509921 12.51531124 24.12304783 C11.61271602 24.12342755 10.71012079 24.12380727 9.7801742 24.1241985 C6.50191919 23.97774928 3.24854355 23.46407765 0 23 C0 15.41 0 7.82 0 0 Z " fill="#FEFDFC" transform="translate(187,188)"/>
<path d="M0 0 C6.96839072 3.81289303 10.74997166 9.39909497 13.3125 16.8125 C14.47626586 24.54556097 13.32829926 32.23987222 8.98828125 38.8203125 C5.22966321 43.53584905 1.68292514 46.34597223 -4.453125 47.1953125 C-10.9714865 47.57200173 -15.12463727 46.89451146 -20.0703125 42.5234375 C-26.50995098 35.71048664 -28.17424152 29.00424418 -28.00390625 19.8515625 C-27.12831437 11.44155654 -22.94033776 6.31483698 -16.5625 1.0625 C-11.388698 -2.38670133 -5.63022537 -1.81312343 0 0 Z " fill="#FDFAFA" transform="translate(422.6875,385.1875)"/>
<path d="M0 0 C5.69871349 2.39592276 9.20247075 6.97837846 11.75 12.5 C13.89773907 19.1502282 14.1673888 26.97991829 11.99609375 33.62890625 C8.93856656 39.59259791 4.32866085 44.78627972 -2.125 46.9375 C-8.67266 47.6779462 -13.96169646 47.49696957 -19.40625 43.55859375 C-25.157943 38.13370149 -28.12225014 31.01057779 -28.5 23.1875 C-28.32196475 16.61008648 -26.68697971 10.7777275 -22.21875 5.82421875 C-15.31581659 -0.39614848 -9.17175371 -2.84640632 0 0 Z " fill="#FDFAF9" transform="translate(270.125,385.0625)"/>
<path d="M0 0 C2 2 2 2 2.375 4.9375 C2.05202466 13.56811881 -1.83722026 20.92468494 -7.71875 27.05859375 C-15.964096 34.07560909 -25.79346969 36.48408276 -36.390625 36.31640625 C-45.16759911 35.54699618 -53.43185647 31.98002532 -59.4296875 25.44140625 C-64.6167092 18.79649383 -66.73269528 11.35272621 -66 3 C-64 1 -64 1 -61 0.6875 C-60.01 0.790625 -59.02 0.89375 -58 1 C-55.89692052 4.15461922 -55.43358199 6.20409352 -54.6875 9.875 C-53.45285028 14.97330481 -52.37072169 17.82129331 -48 21 C-47.05125 21.763125 -46.1025 22.52625 -45.125 23.3125 C-39.31738243 26.41328488 -32.33315594 25.76103755 -26 25 C-20.65333418 23.37455826 -15.44115475 20.65616253 -12.01953125 16.0859375 C-9.99089184 11.9353879 -8.99204701 7.41867653 -7.89453125 2.94921875 C-7.59933594 1.97597656 -7.30414063 1.00273437 -7 0 C-4.29393021 -1.35303489 -2.8671629 -0.7884698 0 0 Z " fill="#FBEFED" transform="translate(373,408)"/>
<path d="M0 0 C1.32 0 2.64 0 4 0 C4 0.66 4 1.32 4 2 C2.75635999 2.73554955 1.47843991 3.41354102 0.1875 4.0625 C-3.3681926 6.16073556 -4.68379296 7.74908698 -5.9375 11.6875 C-6.3016757 13.12249698 -6.65759904 14.55965217 -7 16 C-7.33 16.66 -7.66 17.32 -8 18 C-8.12387591 21.05316592 -8.18848193 24.08254581 -8.203125 27.13671875 C-8.20882507 28.04952103 -8.21452515 28.9623233 -8.22039795 29.90278625 C-8.2298562 31.83874348 -8.2363852 33.77471686 -8.24023438 35.71069336 C-8.24990431 38.65833125 -8.28090494 41.60526129 -8.3125 44.55273438 C-8.3190337 46.4348917 -8.32428273 48.31705401 -8.328125 50.19921875 C-8.3404718 51.07551437 -8.3528186 51.95181 -8.36553955 52.85466003 C-8.34585155 58.32518128 -7.62424479 62.16576053 -5 67 C-2.9648239 68.4818964 -2.9648239 68.4818964 -1 69 C-0.505 68.505 -0.505 68.505 0 68 C1.62640114 67.90288007 3.2570477 67.87628415 4.88634586 67.87695217 C5.95077256 67.87496112 7.01519926 67.87297007 8.11188132 67.87091869 C9.2957077 67.87383153 10.47953409 67.87674437 11.69923401 67.87974548 C12.9455719 67.87889106 14.1919098 67.87803663 15.47601551 67.87715632 C18.95124764 67.87490902 22.42644925 67.87893582 25.90167749 67.88393438 C29.64334451 67.88823535 33.38500967 67.88679271 37.12667847 67.8860321 C43.61461867 67.88550664 50.10254885 67.88865574 56.59048653 67.89426994 C65.97106352 67.90238197 75.35163564 67.90499986 84.73221575 67.90625793 C99.94997927 67.90844892 115.16773744 67.91511028 130.38549805 67.92456055 C145.17195611 67.93373345 159.95841272 67.94081488 174.74487305 67.94506836 C176.11102944 67.94546244 176.11102944 67.94546244 177.50478495 67.94586449 C182.07365604 67.94716949 186.64252714 67.94843321 191.21139824 67.94967639 C229.14093591 67.96005047 267.0704676 67.97767005 305 68 C305 68.66 305 69.32 305 70 C204.35 70 103.7 70 0 70 C0 70.99 0 71.98 0 73 C-5.32654617 70.7171945 -8.16735194 67.44770519 -10.37359619 62.09664917 C-11.56306592 58.1153504 -11.42623141 54.09742487 -11.3984375 49.97265625 C-11.40130768 49.02490829 -11.40417786 48.07716034 -11.40713501 47.10069275 C-11.40916829 45.10463867 -11.40369016 43.10856432 -11.39111328 41.11254883 C-11.37506723 38.07522509 -11.39097807 35.03923553 -11.41015625 32.00195312 C-11.40817334 30.05468459 -11.40432867 28.10741688 -11.3984375 26.16015625 C-11.40451019 25.26095963 -11.41058289 24.361763 -11.4168396 23.43531799 C-11.33882313 16.35912438 -9.99106139 10.98659208 -6 5 C-5.34 5 -4.68 5 -4 5 C-4 4.34 -4 3.68 -4 3 C-2.68 2.67 -1.36 2.34 0 2 C0 1.34 0 0.68 0 0 Z " fill="#F3AF94" transform="translate(186,118)"/>
<path d="M0 0 C1.57168549 -0.01080981 1.57168549 -0.01080981 3.1751222 -0.02183801 C4.89222712 -0.01077658 4.89222712 -0.01077658 6.64402103 0.00050831 C7.86504192 -0.0034661 9.0860628 -0.0074405 10.34408432 -0.01153535 C13.7304568 -0.01949679 17.11632336 -0.01399377 20.50265467 -0.00278485 C24.15576073 0.00605575 27.8088322 -0.00238598 31.4619379 -0.00864697 C38.61750479 -0.01813812 45.77297086 -0.01153219 52.92853027 0.00061598 C61.26070141 0.01423483 69.59284853 0.01259819 77.92502797 0.01048265 C92.79207814 0.00729224 107.65908041 0.018963 122.52611637 0.03854847 C136.95321455 0.0575494 151.38025658 0.06463697 165.80736637 0.05905628 C181.51488451 0.05299828 197.22237794 0.05317621 212.92989403 0.06454211 C214.60490803 0.06574941 216.27992203 0.0669554 217.95493603 0.06816006 C218.77908579 0.0687636 219.60323554 0.06936713 220.45235954 0.06998896 C226.26050652 0.07386836 232.0686443 0.07347438 237.87679195 0.07157421 C244.95563305 0.06945192 252.03442497 0.07467887 259.11325222 0.08918776 C262.72510238 0.09643087 266.33688092 0.10050951 269.94873714 0.0959444 C273.86348927 0.09111683 277.77811119 0.10178419 281.69284916 0.1140337 C282.83535505 0.11025438 283.97786095 0.10647505 285.15498823 0.1025812 C290.39916612 0.13169879 294.83796375 0.23275023 299.73192692 2.37473011 C299.73192692 3.03473011 299.73192692 3.69473011 299.73192692 4.37473011 C299.17935506 4.21226797 298.6267832 4.04980583 298.05746675 3.8824206 C295.47622944 3.31890859 293.16565073 3.25058678 290.52328968 3.25168228 C288.93336519 3.24869571 288.93336519 3.24869571 287.31132102 3.2456488 C286.147906 3.24856164 284.98449098 3.25147448 283.78582096 3.25447559 C282.54917045 3.25362117 281.31251994 3.25276674 280.03839517 3.25188643 C276.60413607 3.2505225 273.16993377 3.25365389 269.73568153 3.25866449 C266.03292243 3.26297809 262.33016512 3.26152192 258.62740421 3.26076221 C252.21154457 3.26023756 245.79569508 3.26337829 239.37983799 3.26900005 C230.10355626 3.27712293 220.82727945 3.27973108 211.55099455 3.28098805 C196.50127651 3.28317732 181.45156389 3.28983405 166.40184879 3.29929066 C151.78140636 3.30846798 137.1609654 3.31554725 122.54052067 3.31979847 C121.18898801 3.32019255 121.18898801 3.32019255 119.81015167 3.3205946 C115.29004469 3.32189963 110.76993771 3.32316334 106.24983072 3.3244065 C68.74385896 3.33477525 31.23789336 3.3523902 -6.26807308 3.37473011 C-6.26807308 4.03473011 -6.26807308 4.69473011 -6.26807308 5.37473011 C-7.58807308 5.70473011 -8.90807308 6.03473011 -10.26807308 6.37473011 C-10.26807308 7.03473011 -10.26807308 7.69473011 -10.26807308 8.37473011 C-10.92807308 8.37473011 -11.58807308 8.37473011 -12.26807308 8.37473011 C-16.09216368 15.20346331 -16.58510933 21.7484773 -16.60401058 29.40207386 C-16.61066738 30.34982182 -16.61732418 31.29756977 -16.6241827 32.27403736 C-16.63426682 34.27006571 -16.63900104 36.26612749 -16.63867855 38.26218128 C-16.64305491 41.29961552 -16.67942853 44.33559896 -16.71729183 47.37277699 C-16.72316042 49.32003768 -16.72712953 51.26730523 -16.72901058 53.21457386 C-16.74338161 54.11377048 -16.75775265 55.01296711 -16.77255917 55.93941212 C-16.71874118 63.44120765 -14.36677003 68.22668468 -10.26807308 74.37473011 C-13.26131571 73.27720781 -14.11418209 72.69790119 -15.51807308 69.74973011 C-15.76557308 68.96598011 -16.01307308 68.18223011 -16.26807308 67.37473011 C-17.25807308 67.37473011 -18.24807308 67.37473011 -19.26807308 67.37473011 C-19.36995807 60.41888487 -19.43974145 53.46323393 -19.48779964 46.50681019 C-19.5078459 44.14313026 -19.53509027 41.7794995 -19.56983089 39.41598988 C-19.61865579 36.00758154 -19.64111257 32.59983208 -19.65869808 29.19113636 C-19.67934322 28.14389896 -19.69998837 27.09666157 -19.72125912 26.0176897 C-19.72316929 19.69295981 -19.21974515 13.58616502 -15.26807308 8.37473011 C-13.12897396 7.6357317 -13.12897396 7.6357317 -11.26807308 7.37473011 C-11.20619808 6.77660511 -11.14432308 6.17848011 -11.08057308 5.56223011 C-9.30523703 0.78247919 -4.63339317 -0.00028225 0 0 Z " fill="#EED7C5" transform="translate(192.26807308197021,114.62526988983154)"/>
<path d="M0 0 C0.495 0.495 0.495 0.495 1 1 C2.62595914 1.0926322 4.25598257 1.11451695 5.88456917 1.10908127 C6.94874538 1.10798882 8.01292158 1.10689638 9.10934556 1.10577083 C10.8848977 1.09628567 10.8848977 1.09628567 12.69631958 1.08660889 C14.56598572 1.08259878 14.56598572 1.08259878 16.47342288 1.07850766 C19.22185546 1.07257399 21.97025319 1.06343415 24.71866798 1.05191422 C29.19081839 1.03319071 33.66297194 1.02128706 38.13514709 1.01028442 C43.78887038 0.99586513 49.44258329 0.97957997 55.09629492 0.96114901 C66.22978277 0.92489331 77.36326679 0.90100751 88.49679565 0.88165283 C90.25005441 0.87854216 92.00331316 0.87542449 93.75657189 0.87229991 C96.41450805 0.86757355 99.07244422 0.86285548 101.73038045 0.85816751 C111.76394133 0.84042582 121.79749921 0.82135502 131.83105469 0.80078125 C132.74855601 0.7989042 133.66605733 0.79702714 134.61136173 0.79509321 C149.42678265 0.76430927 164.24212651 0.71869019 179.05749227 0.66837153 C194.28679921 0.61708919 209.51606584 0.58524679 224.74545181 0.57022786 C234.12502436 0.56031006 243.50429678 0.53514106 252.88376598 0.48977116 C259.33434752 0.45995945 265.78479818 0.44894115 272.235447 0.45200631 C275.94473898 0.45321197 279.6535428 0.44670451 283.36273003 0.41743088 C306.13507356 0.24601193 326.45389472 3.21294333 347.9375 10.8125 C349.12150391 11.21919922 350.30550781 11.62589844 351.52539062 12.04492188 C354.35447537 13.01849355 357.17903709 14.00319677 360 15 C360 15.33 360 15.66 360 16 C353.375 16.25 353.375 16.25 350 14 C347.5436288 13.27720572 345.10802206 12.6135653 342.625 12 C335.59285714 10.24196429 335.59285714 10.24196429 332.40625 8.94140625 C329.57320687 7.83302412 326.88108425 7.38577572 323.875 6.9375 C320.76049405 6.46760571 317.99191093 5.99730364 315 5 C315 4.34 315 3.68 315 3 C271.15114136 3.08173656 227.3023154 3.17389054 183.45350873 3.28005161 C178.27890183 3.29257076 173.10429473 3.30500349 167.9296875 3.31738281 C166.38440515 3.3210818 166.38440515 3.3210818 164.80790497 3.32485552 C148.11862917 3.364599 131.42934658 3.39733931 114.74005102 3.42749982 C97.62031376 3.45859378 80.50060534 3.49719436 63.3809005 3.54279006 C52.81379285 3.57069652 42.24670634 3.59272021 31.6795717 3.60726251 C24.43716734 3.61778979 17.19480387 3.63559648 9.95243029 3.65916704 C5.77152525 3.67255774 1.59067763 3.68270094 -2.59025002 3.68421364 C-6.41729883 3.68566905 -10.24420929 3.69625721 -14.07121561 3.71413441 C-15.45623136 3.71898765 -16.8412638 3.72047841 -18.22628631 3.71827881 C-20.10877442 3.71577978 -21.99126601 3.72670813 -23.87372017 3.73828697 C-25.44234485 3.74170446 -25.44234485 3.74170446 -27.04265893 3.74519098 C-30.29417267 4.02534637 -32.94906129 4.86564713 -36 6 C-42.10364609 7.89273805 -47.58350518 9.42776632 -54 9 C-54 9.66 -54 10.32 -54 11 C-55.32 11 -56.64 11 -58 11 C-58 11.66 -58 12.32 -58 13 C-58.928125 13.268125 -59.85625 13.53625 -60.8125 13.8125 C-63.94775957 14.70632223 -63.94775957 14.70632223 -65.4375 16.5625 C-67.87811608 18.8078668 -70.78189845 18.54833663 -74 19 C-75.33790641 19.99387334 -76.67218122 20.9926892 -78 22 C-80.11328125 21.5859375 -80.11328125 21.5859375 -82 21 C-61.15694949 4.01677366 -26.03490297 -1.92851133 0 0 Z " fill="#EDA388" transform="translate(186,212)"/>
<path d="M0 0 C100.32 0.33 200.64 0.66 304 1 C304 1.66 304 2.32 304 3 C203.68 3 103.36 3 0 3 C0 2.01 0 1.02 0 0 Z " fill="#FEE5D7" transform="translate(187,211)"/>
<path d="M0 0 C0.33 0 0.66 0 1 0 C0.34261814 5.13831128 -0.65040036 10.09413412 -1.875 15.125 C-2.23341146 16.61840837 -2.5914804 18.11189899 -2.94921875 19.60546875 C-3.12630371 20.34200684 -3.30338867 21.07854492 -3.48583984 21.83740234 C-4.49186383 26.06881758 -5.43590991 30.31448057 -6.38671875 34.55859375 C-7 37 -7 37 -8 39 C-8.0450286 40.66605828 -8.03874921 42.33378384 -8 44 C-7.88888889 48.77777778 -7.88888889 48.77777778 -9 51 C-10.06797554 57.2661626 -10.17200335 63.60118124 -10.203125 69.94140625 C-10.20882507 70.86735092 -10.21452515 71.79329559 -10.22039795 72.74729919 C-10.22978878 74.69781372 -10.23635818 76.64834368 -10.24023438 78.59887695 C-10.24989424 81.53040444 -10.28095613 84.46121587 -10.3125 87.39257812 C-10.39049298 101.24058426 -8.9139271 113.68266118 -5 127 C-3.35 127 -1.7 127 0 127 C-0.495 127.99 -0.495 127.99 -1 129 C-1.14483895 138.34211197 -0.67333339 146.47333323 3.94140625 154.80078125 C5 157 5 157 5 161 C5.66 161.33 6.32 161.66 7 162 C6.01 162.99 6.01 162.99 5 164 C-7.56475143 135.97758186 -13.17657847 108.414511 -13.24023438 77.7668457 C-13.24989713 74.96730331 -13.28099386 72.16851049 -13.3125 69.36914062 C-13.4091662 53.10502949 -11.35766572 37.69957124 -7.0625 22 C-6.82337891 21.08089844 -6.58425781 20.16179687 -6.33789062 19.21484375 C-4.59220099 12.6650531 -2.40690439 6.33468442 0 0 Z " fill="#9C1E1D" transform="translate(144,312)"/>
<path d="M0 0 C15.12125749 6.95577845 21.39908702 29.1856819 26.83935547 43.77685547 C41.93085332 85.7564933 42.82667943 134.7747102 28 177 C26.97763251 173.83222678 27.05420689 171.85190675 27.92578125 168.65625 C28.14459961 167.82826904 28.36341797 167.00028809 28.58886719 166.1472168 C28.82766602 165.27363525 29.06646484 164.40005371 29.3125 163.5 C34.53327109 143.47093068 35.15328367 124.14983796 35.0625 103.5625 C35.05747118 101.55924592 35.05291074 99.55599061 35.04882812 97.55273438 C35.03794072 92.70179181 35.02075358 87.85090997 35 83 C34.34 83 33.68 83 33 83 C32.89042969 82.28457031 32.78085937 81.56914062 32.66796875 80.83203125 C31.02848631 68.06668707 31.02848631 68.06668707 27 56 C26.95977609 53.6670134 26.95679753 51.33293334 27 49 C26.01 49 25.02 49 24 49 C23.5359375 47.2984375 23.5359375 47.2984375 23.0625 45.5625 C22.37075469 42.21224901 22.37075469 42.21224901 21 41 C20.85884839 38.32941149 20.95752893 35.67567762 21 33 C20.34 33 19.68 33 19 33 C18.84144531 32.443125 18.68289063 31.88625 18.51953125 31.3125 C16.96450294 26.22644057 15.03307091 22.09165918 11.98828125 17.7265625 C11 16 11 16 11 13 C10.34 13 9.68 13 9 13 C9 12.01 9 11.02 9 10 C7.68733482 8.64631404 6.35432675 7.31200404 5 6 C5 5.34 5 4.68 5 4 C2.525 3.01 2.525 3.01 0 2 C0 1.34 0 0.68 0 0 Z " fill="#9F2C2A" transform="translate(510,275)"/>
<path d="M0 0 C3 1 3 1 4.1640625 3.078125 C6.44075362 11.03590517 6.36649921 21.74774523 2.40234375 29.09765625 C-0.77950128 33.41397527 -4.449344 37.36324049 -9.75390625 38.6875 C-10.86572266 38.8421875 -10.86572266 38.8421875 -12 39 C-12 39.66 -12 40.32 -12 41 C-26.46783047 43.70066169 -37.44996599 43.36907354 -51.01953125 36.91796875 C-53.61033712 35.71710213 -56.27340709 34.83895166 -59 34 C-60.72950562 37.43606271 -60.72950562 37.43606271 -60.4375 41.125 C-60.293125 41.74375 -60.14875 42.3625 -60 43 C-61.47265625 44.6171875 -61.47265625 44.6171875 -63 46 C-68.95703125 34.0859375 -68.95703125 34.0859375 -70.00244141 31.98730469 C-70.90736935 30.18453586 -71.83337298 28.39238471 -72.76171875 26.6015625 C-74 24 -74 24 -74 22 C-70.68234868 22.64090991 -68.34245411 23.88254164 -65.5 25.6875 C-54.79916402 32.23999428 -42.74551871 39.0558875 -30 40 C-29.30390625 40.0515625 -28.6078125 40.103125 -27.890625 40.15625 C-19.63962878 40.49767053 -12.47994549 38.18395639 -6 33 C-0.36659596 27.33898123 3.12853533 22.30968101 3.375 14.125 C3.25503853 8.78005007 2.23061438 4.83299783 0 0 Z " fill="#E7E2D3" transform="translate(594,260)"/>
<path d="M0 0 C-0.33 0.99 -0.66 1.98 -1 3 C-1.65484375 3.08040527 -2.3096875 3.16081055 -2.984375 3.24365234 C-5.99023924 3.6156705 -8.9950994 3.99527988 -12 4.375 C-13.02996094 4.50132812 -14.05992187 4.62765625 -15.12109375 4.7578125 C-16.13300781 4.88671875 -17.14492188 5.015625 -18.1875 5.1484375 C-19.10917969 5.26364746 -20.03085937 5.37885742 -20.98046875 5.49755859 C-24.14999398 5.97466109 -24.14999398 5.97466109 -27.77563477 7.01367188 C-32.30912388 8.17733141 -36.73879901 8.4459421 -41.40234375 8.6328125 C-42.74907669 8.6954277 -42.74907669 8.6954277 -44.12301636 8.75930786 C-47.06083603 8.89161148 -49.99896543 9.00972727 -52.9375 9.125 C-54.46254654 9.18753967 -54.46254654 9.18753967 -56.0184021 9.25134277 C-84.39851105 10.40027448 -112.68630794 10.45139192 -141.0625 9.1875 C-141.90632233 9.15265503 -142.75014465 9.11781006 -143.61953735 9.08190918 C-152.21203189 8.7140109 -160.64991044 8.08581105 -169.12109375 6.55078125 C-170.14409325 6.36844185 -170.14409325 6.36844185 -171.1877594 6.18241882 C-172.8080474 5.86134854 -174.40782587 5.43977364 -176 5 C-176.33 4.34 -176.66 3.68 -177 3 C-176.06430176 3.08564209 -175.12860352 3.17128418 -174.16455078 3.25952148 C-170.59738782 3.58446726 -167.02998591 3.90652389 -163.46240234 4.22680664 C-161.93626062 4.364373 -160.4102138 4.50299741 -158.88427734 4.64282227 C-137.80606462 6.57232158 -116.92283831 7.20511386 -95.75 7.1875 C-95.08423195 7.18723312 -94.4184639 7.18696625 -93.73252106 7.18669128 C-64.40184054 7.17192573 -35.24087129 6.68091058 -6.42993164 0.44360352 C-4 0 -4 0 0 0 Z " fill="#E6BCB6" transform="translate(439,566)"/>
<path d="M0 0 C5.80889627 -0.18440941 11.30031988 0.11148131 17.0625 0.875 C39.66763527 3.70385652 62.37126844 4.18880757 85.125 4.1875 C86.15207062 4.18840637 87.17914124 4.18931274 88.23733521 4.19024658 C98.82812095 4.1891869 109.33584674 4.03414694 119.8984375 3.22045898 C123.92667195 2.93413218 127.89960728 2.90176644 131.9375 2.9375 C132.63294922 2.94201172 133.32839844 2.94652344 134.04492188 2.95117188 C135.69665549 2.96256314 137.3483426 2.9804666 139 3 C139 2.34 139 1.68 139 1 C145.27 1 151.54 1 158 1 C158 1.33 158 1.66 158 2 C154.41842667 2.49290684 150.8345055 2.96643112 147.25 3.4375 C146.27289063 3.57220703 145.29578125 3.70691406 144.2890625 3.84570312 C124.5502928 6.40674603 104.61703987 6.20279589 84.75 6.1875 C84.08931267 6.18738041 83.42862534 6.18726082 82.74791718 6.1871376 C54.9142653 6.18076888 27.54320784 5.37656904 0 1 C0 0.67 0 0.34 0 0 Z " fill="#9A201E" transform="translate(260,568)"/>
<path d="M0 0 C4.14202735 3.35306976 5.70130863 7.69076242 6.36328125 12.80859375 C6.74096083 21.27940725 4.69189619 26.48369981 -0.609375 32.96875 C-6.16338598 38.98134904 -12.73019291 42.61127196 -20.953125 43.12109375 C-29.83398124 43.38503528 -37.60546828 41.32759808 -45.8125 38.125 C-46.44687988 37.88056152 -47.08125977 37.63612305 -47.73486328 37.38427734 C-51.70108737 35.77073812 -54.79027215 33.8245605 -58 31 C-53.47945205 30.62328767 -53.47945205 30.62328767 -51.25 32.375 C-48.28806889 34.51417247 -45.49321442 34.81448677 -41.92578125 35.375 C-41.29027344 35.58125 -40.65476562 35.7875 -40 36 C-39.67 36.99 -39.34 37.98 -39 39 C-37.9275 38.979375 -36.855 38.95875 -35.75 38.9375 C-32 39 -32 39 -30.12109375 39.48046875 C-23.49862419 41.10254693 -16.8526905 40.92434539 -10.875 37.5625 C-9.57239406 36.72511047 -8.27823945 35.87413236 -7 35 C-6.34 34.67 -5.68 34.34 -5 34 C-5 33.34 -5 32.68 -5 32 C-4.34 32 -3.68 32 -3 32 C-2.33300789 30.66601578 -1.70748154 29.31049221 -1.125 27.9375 C0 26 0 26 3 25 C3.33 20.71 3.66 16.42 4 12 C3.34 11.67 2.68 11.34 2 11 C0.68254143 7.12081644 0 4.11624135 0 0 Z " fill="#E9A285" transform="translate(592,258)"/>
<path d="M0 0 C2.31 0 4.62 0 7 0 C7 0.66 7 1.32 7 2 C7.66 2 8.32 2 9 2 C10.59182799 5.18365597 10.12686901 8.52378913 10 12 C9.95875 13.134375 9.9175 14.26875 9.875 15.4375 C8.20400426 22.2408398 3.93214211 28.21002032 -2 32 C-2.66 32 -3.32 32 -4 32 C-4.226875 32.598125 -4.45375 33.19625 -4.6875 33.8125 C-6.392323 36.65387166 -8.0506293 37.51839859 -11 39 C-13.64379883 39.37231445 -13.64379883 39.37231445 -16.45703125 39.36328125 C-17.48763672 39.36263672 -18.51824219 39.36199219 -19.58007812 39.36132812 C-20.64677734 39.34521484 -21.71347656 39.32910156 -22.8125 39.3125 C-23.86759766 39.31572266 -24.92269531 39.31894531 -26.00976562 39.32226562 C-32.01332838 39.28111971 -37.25068541 38.74074543 -43 37 C-43 36.34 -43 35.68 -43 35 C-41.80375 35.33 -40.6075 35.66 -39.375 36 C-27.83593799 38.47782366 -17.47866799 37.56898419 -7 32 C0.79961443 26.76293832 5.02208959 20.23024857 7 11 C7.33465889 7.29059225 7.33465889 7.29059225 7 4 C5.10244856 1.65026182 5.10244856 1.65026182 1.875 1.875 C0.92625 1.91625 -0.0225 1.9575 -1 2 C-0.67 1.34 -0.34 0.68 0 0 Z " fill="#A8282A" transform="translate(367,406)"/>
<path d="M0 0 C0.66 0.33 1.32 0.66 2 1 C1.58488159 1.73935791 1.58488159 1.73935791 1.16137695 2.49365234 C-6.21013163 15.59321883 -6.21013163 15.59321883 -13 29 C-13.33 29 -13.66 29 -14 29 C-14.98497223 24.93698954 -15.30933684 21.17604728 -15 17 C-13.5625 15.3125 -13.5625 15.3125 -12 14 C-11.28552357 11.89667109 -11.28552357 11.89667109 -11 10 C-10.01 10 -9.02 10 -8 10 C-8 9.01 -8 8.02 -8 7 C-8.66 7.474375 -9.32 7.94875 -10 8.4375 C-13.7933028 10.41317854 -16.75524068 10.64027463 -21 11 C-17.11690718 7.35224614 -14.28798182 6.41474367 -9 6 C-9 5.34 -9 4.68 -9 4 C-7.54618103 3.30300448 -6.08677047 2.61766134 -4.625 1.9375 C-3.81289062 1.55464844 -3.00078125 1.17179687 -2.1640625 0.77734375 C-1.44992188 0.52082031 -0.73578125 0.26429688 0 0 Z " fill="#DBECE3" transform="translate(161,275)"/>
<path d="M0 0 C1.32 0 2.64 0 4 0 C4 0.66 4 1.32 4 2 C2.75635999 2.73554955 1.47843991 3.41354102 0.1875 4.0625 C-3.3681926 6.16073556 -4.68379296 7.74908698 -5.9375 11.6875 C-6.3016757 13.12249698 -6.65759904 14.55965217 -7 16 C-7.33 16.66 -7.66 17.32 -8 18 C-8.13306076 20.96439162 -8.210026 23.90912793 -8.24609375 26.875 C-8.27902117 28.68229671 -8.312233 30.48958826 -8.34570312 32.296875 C-8.39321137 35.15426198 -8.43765928 38.01162637 -8.47680664 40.86914062 C-8.51640113 43.62131352 -8.56796476 46.37305987 -8.62109375 49.125 C-8.6295079 49.98335449 -8.63792206 50.84170898 -8.64659119 51.72607422 C-8.77330358 57.77330358 -8.77330358 57.77330358 -11 60 C-11.07447293 53.88023503 -11.12875469 47.76073722 -11.16479492 41.640625 C-11.17982843 39.56115113 -11.20026074 37.48170869 -11.22631836 35.40234375 C-11.26294136 32.40356666 -11.27978111 29.40521089 -11.29296875 26.40625 C-11.30845261 25.48509399 -11.32393646 24.56393799 -11.33988953 23.61486816 C-11.34173928 16.42863512 -10.05521266 11.08281898 -6 5 C-5.34 5 -4.68 5 -4 5 C-4 4.34 -4 3.68 -4 3 C-2.68 2.67 -1.36 2.34 0 2 C0 1.34 0 0.68 0 0 Z " fill="#E69F84" transform="translate(186,118)"/>
<path d="M0 0 C0.33 0 0.66 0 1 0 C1.94275742 4.79502673 2.17472826 9.47268194 2.203125 14.34375 C2.21004868 15.14184082 2.21697235 15.93993164 2.22410583 16.76220703 C2.24138361 19.34152134 2.24769977 21.92063044 2.25 24.5 C2.25133942 25.37793213 2.25267883 26.25586426 2.25405884 27.16040039 C2.24958406 40.65880366 1.58649997 53.72031893 -1 67 C-1.2160791 68.15967285 -1.2160791 68.15967285 -1.43652344 69.34277344 C-2.22734064 73.57660431 -3.07599628 77.79283413 -4 82 C-4.66 82 -5.32 82 -6 82 C-6.495 82.99 -6.495 82.99 -7 84 C-6.54536012 79.36267321 -5.77939313 75.01482548 -4.625 70.5 C0.7474294 47.15772054 0.35413818 23.79808567 0 0 Z " fill="#F1D0C9" transform="translate(547,362)"/>
<path d="M0 0 C5.48369275 1.27527738 7.77816556 3.43573455 11 8 C13.66064809 12.87428413 13.30592273 17.89795255 13.30078125 23.3046875 C13.30506638 24.30202911 13.3093515 25.29937073 13.31376648 26.32693481 C13.31950015 28.43328087 13.32001715 30.53964672 13.31567383 32.64599609 C13.3125179 35.8567918 13.33597157 39.06666213 13.36132812 42.27734375 C13.36360172 44.32812384 13.36430434 46.3789064 13.36328125 48.4296875 C13.372491 49.38406708 13.38170074 50.33844666 13.39118958 51.32174683 C13.3362159 59.3027516 11.63119333 65.02752222 6 71 C3.75 72.3125 3.75 72.3125 2 73 C1.505 70.525 1.505 70.525 1 68 C2.32 68 3.64 68 5 68 C5 67.34 5 66.68 5 66 C5.99 65.505 5.99 65.505 7 65 C7.33 64.01 7.66 63.02 8 62 C8.66 62 9.32 62 10 62 C10 60.35 10 58.7 10 57 C10.66 57 11.32 57 12 57 C11.90574067 51.48621251 11.79949456 45.97282718 11.68261719 40.45947266 C11.64457093 38.58779046 11.60967778 36.7160412 11.578125 34.84423828 C11.53194031 32.13810408 11.47404023 29.43242212 11.4140625 26.7265625 C11.40251129 25.90322418 11.39096008 25.07988586 11.37905884 24.2315979 C11.23216322 18.31668551 10.32080004 12.76343045 9 7 C7.68 6.67 6.36 6.34 5 6 C5 5.01 5 4.02 5 3 C4.360625 2.87625 3.72125 2.7525 3.0625 2.625 C2.381875 2.41875 1.70125 2.2125 1 2 C0.67 1.34 0.34 0.68 0 0 Z " fill="#E6A287" transform="translate(490,119)"/>
<path d="M0 0 C1.75 0.125 1.75 0.125 4 1 C7.81978459 5.91115162 9.10317895 9.60076511 9.17700195 15.70507812 C9.18983719 16.63284058 9.20267242 17.56060303 9.21589661 18.51647949 C9.22697701 20.00879089 9.22697701 20.00879089 9.23828125 21.53125 C9.246353 22.55931763 9.25442474 23.58738525 9.26274109 24.64660645 C9.27655757 26.81858646 9.28729059 28.99058797 9.29516602 31.16259766 C9.31243621 34.48771852 9.35635113 37.81185952 9.40039062 41.13671875 C9.41051305 43.24738853 9.41903055 45.35806674 9.42578125 47.46875 C9.44328934 48.46362427 9.46079742 49.45849854 9.47883606 50.48352051 C9.4570242 57.40054457 9.4570242 57.40054457 6.97338867 60.65820312 C5.99656128 61.32239258 5.99656128 61.32239258 5 62 C5.16134933 61.27118118 5.32269867 60.54236237 5.48893738 59.79145813 C5.95634388 57.23845264 6.14440979 54.92555446 6.17700195 52.33666992 C6.18983719 51.44191452 6.20267242 50.54715912 6.21589661 49.62528992 C6.22328354 48.66999893 6.23067047 47.71470795 6.23828125 46.73046875 C6.246353 45.73549881 6.25442474 44.74052887 6.26274109 43.71540833 C6.27654624 41.61326828 6.28728428 39.51110615 6.29516602 37.40893555 C6.30669347 35.2666158 6.32715722 33.12432494 6.35668945 30.98217773 C6.39947162 27.87724402 6.41554892 24.77316103 6.42578125 21.66796875 C6.44328934 20.71875046 6.46079742 19.76953217 6.47883606 18.79154968 C6.45392401 11.09192686 4.2055725 6.30835874 0 0 Z " fill="#EEDDCC" transform="translate(496,121)"/>
<path d="M0 0 C0.64066406 0.34933594 1.28132813 0.69867188 1.94140625 1.05859375 C7.02588738 3.73344001 11.17981676 5.70899084 17 6 C18.00675781 6.061875 19.01351562 6.12375 20.05078125 6.1875 C27.99522807 6.47028342 34.51686306 5.3335145 42.0390625 2.77734375 C44.94555312 2.0142941 46.24749365 1.93256461 49 3 C38.77986077 10.87551905 26.28476068 10.89162484 13.93994141 9.34960938 C9.52427553 8.5538337 5.4827784 6.8273759 2 4 C0.74609375 1.83203125 0.74609375 1.83203125 0 0 Z " fill="#E7E2D1" transform="translate(91,284)"/>
<path d="M0 0 C13.71060513 6.30687836 20.16710397 25.75598357 25.16796875 39.203125 C26.20837983 42.7004693 26.41931599 45.3938825 26 49 C25.34 49 24.68 49 24 49 C23.5359375 47.2984375 23.5359375 47.2984375 23.0625 45.5625 C22.37075469 42.21224901 22.37075469 42.21224901 21 41 C20.85884839 38.32941149 20.95752893 35.67567762 21 33 C20.34 33 19.68 33 19 33 C18.84144531 32.443125 18.68289063 31.88625 18.51953125 31.3125 C16.96450294 26.22644057 15.03307091 22.09165918 11.98828125 17.7265625 C11 16 11 16 11 13 C10.34 13 9.68 13 9 13 C9 12.01 9 11.02 9 10 C7.68733482 8.64631404 6.35432675 7.31200404 5 6 C5 5.34 5 4.68 5 4 C2.525 3.01 2.525 3.01 0 2 C0 1.34 0 0.68 0 0 Z " fill="#A91A11" transform="translate(510,275)"/>
<path d="M0 0 C0.33 0 0.66 0 1 0 C1.01981934 0.91587891 1.03963867 1.83175781 1.06005859 2.77539062 C1.13935017 6.25721058 1.22605941 9.73869715 1.31738281 13.22021484 C1.35506855 14.71135636 1.39001152 16.20257037 1.421875 17.69384766 C1.88931186 39.32740995 5.52564969 60.10298765 11 81 C10.01 81.495 10.01 81.495 9 82 C9 80.35 9 78.7 9 77 C8.34 77 7.68 77 7 77 C6.85377197 76.27820557 6.70754395 75.55641113 6.55688477 74.81274414 C5.89601056 71.56185121 5.22933554 68.31217511 4.5625 65.0625 C4.21735352 63.35803711 4.21735352 63.35803711 3.86523438 61.61914062 C3.53168945 59.99975586 3.53168945 59.99975586 3.19140625 58.34765625 C2.98717041 57.34742432 2.78293457 56.34719238 2.57250977 55.31665039 C2.22468578 53.05241475 2.22468578 53.05241475 1 52 C0.74135365 49.67856915 0.56499631 47.39303825 0.4375 45.0625 C0.3950415 44.3092041 0.35258301 43.5559082 0.30883789 42.77978516 C-0.36880741 28.54241642 -0.07974682 14.24891557 0 0 Z " fill="#E6B2AE" transform="translate(130,375)"/>
<path d="M0 0 C0.33 0 0.66 0 1 0 C0.34261243 5.13835593 -0.65076641 10.0940297 -1.875 15.125 C-2.23591297 16.63275605 -2.59658785 18.14056912 -2.95703125 19.6484375 C-3.13443848 20.38674805 -3.3118457 21.12505859 -3.49462891 21.88574219 C-4.20002464 24.83681805 -4.88259628 27.79295843 -5.5625 30.75 C-5.79710937 31.76964844 -6.03171875 32.78929687 -6.2734375 33.83984375 C-6.51320312 34.88269531 -6.75296875 35.92554688 -7 37 C-7.56231161 39.43754347 -8.12480797 41.87504432 -8.6875 44.3125 C-8.93886719 45.40175781 -9.19023437 46.49101562 -9.44921875 47.61328125 C-9.63097656 48.40089844 -9.81273437 49.18851562 -10 50 C-10.66 49.67 -11.32 49.34 -12 49 C-11.51857167 41.147904 -10.21988374 33.79634512 -8.25 26.1875 C-7.98558105 25.1459375 -7.72116211 24.104375 -7.44873047 23.03125 C-5.40841702 15.16792348 -3.00356795 7.54879024 0 0 Z " fill="#A01B1A" transform="translate(144,312)"/>
<path d="M0 0 C1.35604816 0.06340008 2.7121692 0.12526086 4.06835938 0.18554688 C7.35910654 0.33778785 10.64828756 0.50549202 13.9375 0.6875 C13.6075 1.3475 13.2775 2.0075 12.9375 2.6875 C12.33381592 2.67807373 11.73013184 2.66864746 11.1081543 2.65893555 C4.94052998 2.60485964 -1.11289061 2.90172109 -7.25 3.5 C-8.15766113 3.58693115 -9.06532227 3.6738623 -10.00048828 3.76342773 C-16.71796839 4.45104847 -23.2468784 5.54219544 -29.8359375 7.00390625 C-33.23160388 7.72332709 -36.62260611 8.23029891 -40.0625 8.6875 C-40.0625 8.0275 -40.0625 7.3675 -40.0625 6.6875 C-38.48662109 6.30658203 -38.48662109 6.30658203 -36.87890625 5.91796875 C-35.46088965 5.57050773 -34.04292361 5.22284031 -32.625 4.875 C-31.59342773 4.6265332 -31.59342773 4.6265332 -30.54101562 4.37304688 C-26.23117502 3.32636239 -26.23117502 3.32636239 -22.04858398 1.87036133 C-14.76655977 -1.06757942 -7.72753464 -0.43036541 0 0 Z " fill="#EADFD0" transform="translate(173.0625,210.3125)"/>
<path d="M0 0 C3.83029006 0.68464122 6.78378623 2.42937921 10.125 4.375 C11.17945313 4.98085938 12.23390625 5.58671875 13.3203125 6.2109375 C16 8 16 8 18 11 C14.37 10.67 10.74 10.34 7 10 C6.67 8.02 6.34 6.04 6 4 C4.68 4 3.36 4 2 4 C2.49371094 5.04800781 2.98742187 6.09601563 3.49609375 7.17578125 C4.14331627 8.55464662 4.79044689 9.93355512 5.4375 11.3125 C5.92573242 12.34793945 5.92573242 12.34793945 6.42382812 13.40429688 C7.75487485 16.24477803 9.00707934 19.02123803 10 22 C9.34 22.33 8.68 22.66 8 23 C6.45984969 19.92595107 4.94637913 16.83950288 3.4375 13.75 C2.99986328 12.87730469 2.56222656 12.00460937 2.11132812 11.10546875 C1.70205078 10.26113281 1.29277344 9.41679687 0.87109375 8.546875 C0.48880615 7.77182617 0.10651855 6.99677734 -0.28735352 6.19824219 C-1.10244103 3.68400855 -0.88207936 2.45320685 0 0 Z " fill="#B2140B" transform="translate(487,261)"/>
<path d="M0 0 C2.67872769 2.67872769 3.95199951 5.87275056 5.5625 9.25 C10.38926799 19.14262937 15.98339858 28.48209873 23 37 C22.34 38.32 21.68 39.64 21 41 C19.5393715 38.35261084 19 37.10551666 19 34 C17.35 33.67 15.7 33.34 14 33 C13.01 29.37 12.02 25.74 11 22 C10.34 22 9.68 22 9 22 C8.34 20.02 7.68 18.04 7 16 C6.34 16 5.68 16 5 16 C2 10.25 2 10.25 2 8 C1.34 8 0.68 8 0 8 C0 5.36 0 2.72 0 0 Z " fill="#EBD5CF" transform="translate(148,474)"/>
<path d="M0 0 C0.66 1.32 1.32 2.64 2 4 C3.65 4 5.3 4 7 4 C6.67 4.66 6.34 5.32 6 6 C5.85516105 15.34211197 6.32666661 23.47333323 10.94140625 31.80078125 C12 34 12 34 12 38 C12.66 38.33 13.32 38.66 14 39 C13.34 39.66 12.68 40.32 12 41 C9.97857262 36.34221264 7.98419493 31.67376862 6 27 C5.67128906 26.25621094 5.34257812 25.51242187 5.00390625 24.74609375 C2.50028717 18.74000238 1.87435613 12.40664584 1 6 C0.67338242 3.99889229 0.34208918 1.99852098 0 0 Z " fill="#AD0C0B" transform="translate(137,435)"/>
<path d="M0 0 C2.31 0 4.62 0 7 0 C7 0.66 7 1.32 7 2 C7.66 2 8.32 2 9 2 C10.59182799 5.18365597 10.12686901 8.52378913 10 12 C9.95875 13.134375 9.9175 14.26875 9.875 15.4375 C8.67389238 20.32772389 6.30083961 24.20442097 3 28 C0.80078125 29.26171875 0.80078125 29.26171875 -1 30 C-0.38619697 26.88960487 0.65009118 24.79170692 2.4375 22.1875 C6.15556672 16.38473691 7.54254089 10.91739632 7 4 C5.10244856 1.65026182 5.10244856 1.65026182 1.875 1.875 C0.92625 1.91625 -0.0225 1.9575 -1 2 C-0.67 1.34 -0.34 0.68 0 0 Z " fill="#A4181B" transform="translate(367,406)"/>
<path d="M0 0 C4.49113567 1.14479929 8.12506258 2.45361255 12 5 C15.12662972 6.56331486 18.44579506 6.14573146 21.875 6.125 C22.63353271 6.12306641 23.39206543 6.12113281 24.17358398 6.11914062 C30.48171686 6.07123581 36.72690039 5.67686624 43 5 C34.34588268 10.76941155 22.52700351 9.87252522 12.625 8.375 C7.55908148 7.22594232 3.72477807 4.56871195 0 1 C0 0.67 0 0.34 0 0 Z " fill="#E8A386" transform="translate(90,282)"/>
<path d="M0 0 C7.66795502 2.33937611 14.77137274 5.54768806 22 9 C22 9.66 22 10.32 22 11 C22.825 11.20625 23.65 11.4125 24.5 11.625 C28.95935597 13.37688985 32.29553846 16.01010465 36 19 C33 20 33 20 30.73828125 19.00390625 C29.93777344 18.52824219 29.13726563 18.05257812 28.3125 17.5625 C27.50425781 17.08941406 26.69601562 16.61632812 25.86328125 16.12890625 C25.24839844 15.75636719 24.63351562 15.38382813 24 15 C24 14.34 24 13.68 24 13 C23.278125 12.731875 22.55625 12.46375 21.8125 12.1875 C19.01877538 11.00792738 16.59633766 9.5578026 14 8 C12.34302621 7.30959426 10.6744239 6.6469365 9 6 C5.99136366 4.6859413 2.99524394 3.3442707 0 2 C0 1.34 0 0.68 0 0 Z " fill="#EAA082" transform="translate(546,228)"/>
<path d="M0 0 C0.92657368 2.77972103 1.10199957 4.27915619 1.03417969 7.12915039 C1.0179657 7.95753922 1.00175171 8.78592804 0.98504639 9.63941956 C0.96419983 10.53313766 0.94335327 11.42685577 0.921875 12.34765625 C0.89459279 14.25193576 0.86859291 16.15623398 0.84375 18.06054688 C0.80070597 21.05381883 0.75039796 24.04610955 0.67773438 27.03881836 C-0.0625717 42.34473591 -0.0625717 42.34473591 6 56 C6.66 56.99 7.32 57.98 8 59 C5.00675737 57.9024777 4.15389099 57.32317108 2.75 54.375 C2.5025 53.59125 2.255 52.8075 2 52 C1.01 52 0.02 52 -1 52 C-1.02529271 44.91586059 -1.04284261 37.83173277 -1.05493164 30.74755859 C-1.05996974 28.33609583 -1.06680034 25.92463614 -1.07543945 23.51318359 C-1.08752787 20.05305221 -1.09323344 16.5929611 -1.09765625 13.1328125 C-1.10281754 12.04944611 -1.10797882 10.96607971 -1.11329651 9.84988403 C-1.11337204 8.8489975 -1.11344757 7.84811096 -1.11352539 6.81689453 C-1.115746 5.93309113 -1.11796661 5.04928772 -1.12025452 4.13870239 C-1 2 -1 2 0 0 Z " fill="#E7E3D4" transform="translate(174,130)"/>
<path d="M0 0 C0.54164795 0.1868335 1.0832959 0.37366699 1.64135742 0.56616211 C7.15100008 2.43855434 12.68416767 4.08721314 18.3125 5.5625 C19.13339111 5.77865967 19.95428223 5.99481934 20.80004883 6.2175293 C27.14741558 7.85433432 33.49905925 9.13061271 40 10 C40 10.33 40 10.66 40 11 C37.5622037 11.05397335 35.12560315 11.09365616 32.6875 11.125 C31.65206055 11.15013672 31.65206055 11.15013672 30.59570312 11.17578125 C26.82864604 11.21217794 25.21568296 11.14378864 22 9 C20.865625 9.020625 19.73125 9.04125 18.5625 9.0625 C14.54000963 8.99192999 14.01664968 8.35675756 11 6 C7.34725531 5.27518916 7.34725531 5.27518916 4 5 C4 4.34 4 3.68 4 3 C2.68 2.67 1.36 2.34 0 2 C0 1.34 0 0.68 0 0 Z " fill="#E8C7BE" transform="translate(220,558)"/>
<path d="M0 0 C0.99 0.33 1.98 0.66 3 1 C2.33613281 1.60585937 1.67226562 2.21171875 0.98828125 2.8359375 C-5.91292821 9.38453042 -11.54780829 15.04312786 -12.29296875 24.859375 C-12.35977517 28.58138307 -12.20274035 32.28309364 -12 36 C-12 36.99 -12 37.98 -12 39 C-12.66 38.67 -13.32 38.34 -14 38 C-14.08174796 35.16607074 -14.14084985 32.33455181 -14.1875 29.5 C-14.21263672 28.70851563 -14.23777344 27.91703125 -14.26367188 27.1015625 C-14.36374063 18.9626373 -12.1028332 12.49451499 -7 6 C-4.75 4.625 -4.75 4.625 -3 4 C-3 3.34 -3 2.68 -3 2 C-2.01 2 -1.02 2 0 2 C0 1.34 0 0.68 0 0 Z " fill="#ECDDCA" transform="translate(95,237)"/>
<path d="M0 0 C0.66 0 1.32 0 2 0 C0.56248766 3.2821443 -1.21569349 5.47282391 -3.73828125 8.00390625 C-4.84526367 9.11475586 -4.84526367 9.11475586 -5.97460938 10.24804688 C-6.74611328 11.01181641 -7.51761719 11.77558594 -8.3125 12.5625 C-9.07240234 13.33013672 -9.83230469 14.09777344 -10.61523438 14.88867188 C-11.35708984 15.62794922 -12.09894531 16.36722656 -12.86328125 17.12890625 C-13.53657471 17.79994385 -14.20986816 18.47098145 -14.90356445 19.16235352 C-17.12967851 21.11367068 -19.42300366 22.55361484 -22 24 C-22 23.01 -22 22.02 -22 21 C-20.68 20.67 -19.36 20.34 -18 20 C-17.67 18.35 -17.34 16.7 -17 15 C-15.68 15 -14.36 15 -13 15 C-12.67 14.01 -12.34 13.02 -12 12 C-11.34 12 -10.68 12 -10 12 C-9.938125 11.401875 -9.87625 10.80375 -9.8125 10.1875 C-8.67565412 7.1267611 -6.7872897 6.56360154 -4 5 C-3.34 4.01 -2.68 3.02 -2 2 C-1.34 2 -0.68 2 0 2 C0 1.34 0 0.68 0 0 Z " fill="#9D2321" transform="translate(493,525)"/>
<path d="M0 0 C6.22523999 0.43397106 12.31082263 1.34882227 18.4375 2.5 C19.13552734 2.63059814 19.83355469 2.76119629 20.55273438 2.89575195 C23.44752041 3.45208924 26.19978554 4.06659518 29 5 C30.1875 7.0625 30.1875 7.0625 31 9 C25.40559139 8.4914174 20.51960437 6.88953426 15.22265625 5.0546875 C10.21911673 3.41716548 5.12351043 2.19911946 0 1 C0 0.67 0 0.34 0 0 Z " fill="#EAE4D3" transform="translate(507,215)"/>
<path d="M0 0 C1.32 0.33 2.64 0.66 4 1 C4.144375 2.134375 4.28875 3.26875 4.4375 4.4375 C4.61171478 7.80777201 4.61171478 7.80777201 6 9 C6.10030219 11.22729872 6.12965946 13.45794883 6.125 15.6875 C6.12757813 16.90824219 6.13015625 18.12898438 6.1328125 19.38671875 C6.01031761 22.71930037 5.80326007 25.76291002 5 29 C2.4375 30.375 2.4375 30.375 0 31 C1.875 25.25 1.875 25.25 3 23 C3.57301313 14.70232904 3.18648099 7.70066239 0 0 Z " fill="#A11B1B" transform="translate(279,393)"/>
<path d="M0 0 C0.33 0.99 0.66 1.98 1 3 C3.00016466 4.20882096 3.00016466 4.20882096 5 5 C5 5.99 5 6.98 5 8 C4.29875 7.38125 3.5975 6.7625 2.875 6.125 C-1.72195943 2.72724738 -6.15646756 1.48398972 -11.91015625 1.60546875 C-15.83666324 2.34673456 -18.82808204 4.67908442 -22 7 C-22.99 7.66 -23.98 8.32 -25 9 C-25 7.35 -25 5.7 -25 4 C-17.16312937 -1.33574171 -9.10444175 -0.37245444 0 0 Z " fill="#9F1B1C" transform="translate(272,383)"/>
<path d="M0 0 C0.66 0 1.32 0 2 0 C0.22610709 6.82679998 -1.8100063 13.50680012 -4.08203125 20.18359375 C-5.24675938 23.75707879 -6.15515142 27.33898948 -7 31 C-7.33 31 -7.66 31 -8 31 C-8.31557556 24.43135322 -8.36214912 19.81910424 -5 14 C-4.62952869 12.67650467 -4.2981424 11.34164079 -4 10 C-3.17285328 6.35494666 -1.80759987 3.28654523 0 0 Z " fill="#EED9D0" transform="translate(143,310)"/>
<path d="M0 0 C0.33 0 0.66 0 1 0 C1.25235894 3.53302522 1.19328523 5.62183324 -0.4375 8.8125 C-2.42127544 12.85940189 -2.7132081 16.54978092 -3 21 C-2.34 21 -1.68 21 -1 21 C-1 21.99 -1 22.98 -1 24 C-0.34 24 0.32 24 1 24 C2.06775224 25.96466413 3.06553465 27.96855359 4 30 C3.67 30.66 3.34 31.32 3 32 C-1.01610912 28.21952993 -3.68853058 24.88087338 -4.60546875 19.34375 C-4.76307006 11.83892556 -4.12349716 6.31410503 0 0 Z " fill="#E9A084" transform="translate(86,250)"/>
<path d="M0 0 C0.66 0 1.32 0 2 0 C0.45604425 5.6733522 -2.36201401 10.24346581 -5.4375 15.1875 C-6.17323242 16.39696289 -6.17323242 16.39696289 -6.92382812 17.63085938 C-9.0607366 21.10009135 -11.00787127 24.2025702 -14 27 C-13.67 25.02 -13.34 23.04 -13 21 C-12.34 21 -11.68 21 -11 21 C-10.87625 20.443125 -10.7525 19.88625 -10.625 19.3125 C-9.94023145 16.77885636 -9.00866237 14.42078968 -8 12 C-7.34 12 -6.68 12 -6 12 C-5.855625 11.38125 -5.71125 10.7625 -5.5625 10.125 C-5 8 -5 8 -4 6 C-3.34 6 -2.68 6 -2 6 C-1.34 4.02 -0.68 2.04 0 0 Z " fill="#A11C1C" transform="translate(522,483)"/>
<path d="M0 0 C0.33 0.99 0.66 1.98 1 3 C-3.75 6 -3.75 6 -6 6 C-6 6.66 -6 7.32 -6 8 C-10.17737474 9.59138085 -13.53160785 10.21278058 -18 10 C-17.67 8.68 -17.34 7.36 -17 6 C-17.66 5.67 -18.32 5.34 -19 5 C-18.21496094 4.97421875 -17.42992187 4.9484375 -16.62109375 4.921875 C-9.94281332 4.5613298 -5.49342308 3.87036626 0 0 Z " fill="#AC1210" transform="translate(428,427)"/>
<path d="M0 0 C2.31 0 4.62 0 7 0 C7.33 0.66 7.66 1.32 8 2 C5.69 2.66 3.38 3.32 1 4 C0.54439848 10.15062051 1.6165891 14.27193249 4.125 19.8984375 C5 22 5 22 5 24 C4.01 24 3.02 24 2 24 C-1.62793193 17.78068812 -2.46949423 11.0424135 -2 4 C-1 1.5 -1 1.5 0 0 Z " fill="#9F1D1D" transform="translate(307,407)"/>
<path d="M0 0 C1.36186776 4.08560327 -0.11153504 6.67594894 -1.625 10.5 C-1.89844238 11.20962891 -2.17188477 11.91925781 -2.45361328 12.65039062 C-4.74858161 18.5346522 -7.2722104 24.30302348 -10 30 C-10.83661671 27.65747321 -11.20037114 26.47688331 -10.21875 24.140625 C-9.61546875 23.08101563 -9.61546875 23.08101563 -9 22 C-5.40288686 13.29125035 -5.40288686 13.29125035 -2.8125 4.25 C-2.544375 3.1775 -2.27625 2.105 -2 1 C-1.34 0.67 -0.68 0.34 0 0 Z " fill="#9D2424" transform="translate(536,452)"/>
<path d="M0 0 C-0.28875 0.60585938 -0.5775 1.21171875 -0.875 1.8359375 C-4.95742639 11.04974706 -4.8318408 18.44253729 -2 28 C-2.66 28.33 -3.32 28.66 -4 29 C-6.3802365 24.3336075 -6.26623751 20.10550593 -6.1875 15 C-6.18685547 14.2059375 -6.18621094 13.411875 -6.18554688 12.59375 C-6.15562835 8.604613 -5.98093144 4.89233597 -5 1 C-5.66 0.67 -6.32 0.34 -7 0 C-3.86650268 -1.04449911 -3.01031744 -0.93423645 0 0 Z " fill="#9E2021" transform="translate(247,393)"/>
<path d="M0 0 C4 1 4 1 5.484375 2.84765625 C5.90203125 3.57855469 6.3196875 4.30945313 6.75 5.0625 C7.39195312 6.16271484 7.39195312 6.16271484 8.046875 7.28515625 C8.36140625 7.85105469 8.6759375 8.41695313 9 9 C8.07380859 9.22816406 8.07380859 9.22816406 7.12890625 9.4609375 C5.72325215 9.81686459 4.32520107 10.20448452 2.9375 10.625 C1 11 1 11 -2 10 C-1.34 6.7 -0.68 3.4 0 0 Z " fill="#AE1212" transform="translate(242,420)"/>
<path d="M0 0 C0.33 0.66 0.66 1.32 1 2 C-0.34710422 6.04131267 -2.38428334 6.90288434 -6 9 C-6.99 9 -7.98 9 -9 9 C-9 9.66 -9 10.32 -9 11 C-9.99 11 -10.98 11 -12 11 C-12.2784375 11.9590625 -12.2784375 11.9590625 -12.5625 12.9375 C-14 15 -14 15 -17.625 15.75 C-18.73875 15.8325 -19.8525 15.915 -21 16 C-16.68599534 12.49877882 -12.22825087 9.24278714 -7.71875 6 C-5.08825315 4.06492186 -2.53531441 2.05764648 0 0 Z " fill="#EBC5BE" transform="translate(477,544)"/>
<path d="M0 0 C4.1677192 4.11214961 8.19000977 8.34764368 12.1875 12.625 C13.13012695 13.62660156 13.13012695 13.62660156 14.09179688 14.6484375 C14.69443359 15.29296875 15.29707031 15.9375 15.91796875 16.6015625 C16.46219482 17.18244629 17.0064209 17.76333008 17.56713867 18.36181641 C19 20 19 20 21 23 C20.01 23 19.02 23 18 23 C18 22.34 18 21.68 18 21 C17.38125 20.9175 16.7625 20.835 16.125 20.75 C13.32494581 19.76174558 13.25886068 18.59640015 12 16 C11.34 15.690625 10.68 15.38125 10 15.0625 C7.22268137 13.58704948 7.16128585 11.90321461 6 9 C4.48414998 7.10926234 2.88927464 5.32790159 1.2421875 3.55078125 C0 2 0 2 0 0 Z " fill="#EED1C8" transform="translate(171,513)"/>
<path d="M0 0 C3 1 3 1 4 3 C4.66 3.2475 5.32 3.495 6 3.75 C6.66 4.1625 7.32 4.575 8 5 C8.40632091 6.98645776 8.72949547 8.99053778 9 11 C9.53625 12.03125 10.0725 13.0625 10.625 14.125 C12.13609061 17.28455309 12.01498047 17.84679401 11 21 C9.16327681 17.68936862 7.33119238 14.37619334 5.5 11.0625 C4.97535156 10.11697266 4.45070312 9.17144531 3.91015625 8.19726562 C3.16572266 6.84858398 3.16572266 6.84858398 2.40625 5.47265625 C1.94541016 4.64000244 1.48457031 3.80734863 1.00976562 2.94946289 C0 1 0 1 0 0 Z " fill="#A21D1C" transform="translate(150,478)"/>
<path d="M0 0 C0.33 1.32 0.66 2.64 1 4 C0.01 4 -0.98 4 -2 4 C-2.1546875 4.9590625 -2.1546875 4.9590625 -2.3125 5.9375 C-2.539375 6.618125 -2.76625 7.29875 -3 8 C-3.99 8.33 -4.98 8.66 -6 9 C-6 9.99 -6 10.98 -6 12 C-11.2734375 15.22265625 -11.2734375 15.22265625 -13 16 C-13.66 15.67 -14.32 15.34 -15 15 C-10.05 10.05 -5.1 5.1 0 0 Z " fill="#EAD2C9" transform="translate(493,528)"/>
<path d="M0 0 C0.66 0.33 1.32 0.66 2 1 C1.3503125 1.5878125 1.3503125 1.5878125 0.6875 2.1875 C-1.11171387 3.98966473 -1.11171387 3.98966473 -2.4375 6.4375 C-4.03537904 9.05802163 -5.80421473 10.87504651 -8 13 C-8.66 13.99 -9.32 14.98 -10 16 C-10.734375 14.35546875 -10.734375 14.35546875 -11 12 C-9.453125 9.23828125 -9.453125 9.23828125 -7.25 6.3125 C-6.53328125 5.33925781 -5.8165625 4.36601562 -5.078125 3.36328125 C-3 1 -3 1 0 0 Z " fill="#B0130A" transform="translate(281,287)"/>
<path d="M0 0 C0 0.66 0 1.32 0 2 C-1.65 2.33 -3.3 2.66 -5 3 C-5.33 4.65 -5.66 6.3 -6 8 C-7.32 7.67 -8.64 7.34 -10 7 C-10 8.32 -10 9.64 -10 11 C-10.97648017 12.02297922 -11.98131338 13.01904252 -13 14 C-14.04622875 15.97620986 -15.05439935 17.9737129 -16 20 C-16.66 20 -17.32 20 -18 20 C-14.89872928 11.88452522 -11.49183227 5.10199876 -3.734375 0.7421875 C-2 0 -2 0 0 0 Z " fill="#B1190F" transform="translate(173,270)"/>
<path d="M0 0 C0.33 0 0.66 0 1 0 C1.17015625 0.969375 1.3403125 1.93875 1.515625 2.9375 C3.27496867 12.74149502 5.47614278 22.36578361 8 32 C7.01 32.495 7.01 32.495 6 33 C6 31.35 6 29.7 6 28 C5.34 28 4.68 28 4 28 C3.32019419 24.83601018 2.65861314 21.66846323 2 18.5 C1.80921875 17.613125 1.6184375 16.72625 1.421875 15.8125 C0.31211085 10.422217 -0.2056975 5.50240809 0 0 Z " fill="#EECAC0" transform="translate(133,424)"/>
<path d="M0 0 C3.79588866 0.54226981 5.47211993 2.20127563 8 5 C7.01 5.33 6.02 5.66 5 6 C5.99 7.485 5.99 7.485 7 9 C7 9.99 7 10.98 7 12 C7.66 12 8.32 12 9 12 C9.66 14.31 10.32 16.62 11 19 C10.34 19.33 9.68 19.66 9 20 C7.68253667 17.41909233 6.37090383 14.83549542 5.0625 12.25 C4.68931641 11.52039063 4.31613281 10.79078125 3.93164062 10.0390625 C3.57392578 9.33007812 3.21621094 8.62109375 2.84765625 7.890625 C2.51773682 7.24125977 2.18781738 6.59189453 1.84790039 5.92285156 C0.98547884 3.96706921 0.45625821 2.08459306 0 0 Z " fill="#F1D1C4" transform="translate(520,282)"/>
<path d="M0 0 C2.86724686 0.57344937 3.8614515 0.8614515 6 3 C7.34335202 7.08855514 7.14668595 11.24232423 7.125 15.5 C7.12886719 16.25925781 7.13273437 17.01851563 7.13671875 17.80078125 C7.13046768 21.37014456 6.96340936 24.56731602 6 28 C5.34 28 4.68 28 4 28 C4.165 27.236875 4.33 26.47375 4.5 25.6875 C5.85650983 15.68323997 4.85009524 8.95535442 0 0 Z " fill="#A02226" transform="translate(430,391)"/>
<path d="M0 0 C2.36677161 3.55015741 3.11729376 7.0350962 4.0625 11.125 C4.81541257 15.94675731 4.81541257 15.94675731 7 20 C7.07271741 22.35313555 7.08370868 24.70833668 7.0625 27.0625 C7.05347656 28.35285156 7.04445313 29.64320313 7.03515625 30.97265625 C7.02355469 31.97167969 7.01195312 32.97070312 7 34 C6.67 34 6.34 34 6 34 C5.88930176 33.37544922 5.77860352 32.75089844 5.66455078 32.10742188 C5.15423575 29.23776272 4.63964735 26.36888522 4.125 23.5 C3.95097656 22.51773437 3.77695312 21.53546875 3.59765625 20.5234375 C2.81089769 16.15255659 1.99708806 11.82766202 0.8671875 7.53125 C0 4 0 4 0 0 Z " fill="#F5D5CE" transform="translate(540,328)"/>
<path d="M0 0 C0.66 0.33 1.32 0.66 2 1 C-1.625 5.875 -1.625 5.875 -5 7 C-5.433125 8.2065625 -5.433125 8.2065625 -5.875 9.4375 C-7 12 -7 12 -9.5625 13.1875 C-10.366875 13.455625 -11.17125 13.72375 -12 14 C-12.33 14.66 -12.66 15.32 -13 16 C-13.66 16 -14.32 16 -15 16 C-13.42529581 12.17444746 -10.99021491 9.75542436 -8.0625 6.875 C-7.18722656 6.00617188 -6.31195313 5.13734375 -5.41015625 4.2421875 C-3 2 -3 2 0 0 Z " fill="#EAA488" transform="translate(102,234)"/>
<path d="M0 0 C0.66 0.66 1.32 1.32 2 2 C1.50736314 4.66322471 0.92056292 7.1528628 0.1875 9.75 C-0.19622252 11.16085855 -0.57776871 12.572311 -0.95703125 13.984375 C-1.23087646 15.00047852 -1.23087646 15.00047852 -1.51025391 16.03710938 C-2.16681844 18.66860433 -2.60778153 21.31773178 -3 24 C-6.11198543 18.93397721 -5.02642615 13.62739932 -4 8 C-2.89992641 5.07834707 -1.60710798 2.69579403 0 0 Z " fill="#AC1007" transform="translate(175,288)"/>
<path d="M0 0 C3 1 3 1 6 3 C5.01 3 4.02 3 3 3 C3.49371094 4.04800781 3.98742187 5.09601563 4.49609375 6.17578125 C5.14331627 7.55464662 5.79044689 8.93355512 6.4375 10.3125 C6.92573242 11.34793945 6.92573242 11.34793945 7.42382812 12.40429688 C8.75487485 15.24477803 10.00707934 18.02123803 11 21 C10.34 21.33 9.68 21.66 9 22 C7.4905412 18.90034597 5.99409333 15.79458597 4.5 12.6875 C4.07074219 11.80642578 3.64148438 10.92535156 3.19921875 10.01757812 C2.79316406 9.17001953 2.38710938 8.32246094 1.96875 7.44921875 C1.59169922 6.66893311 1.21464844 5.88864746 0.82617188 5.0847168 C0 3 0 3 0 0 Z " fill="#AE1308" transform="translate(486,262)"/>
<path d="M0 0 C0.33 0 0.66 0 1 0 C1.19528898 5.56573604 0.55085259 9.61762926 -1 15 C-1.29244289 17.84831363 -1.49654577 20.68816921 -1.65625 23.546875 C-2 26 -2 26 -4 29 C-5.30269039 24.49741241 -4.62208158 20.6751708 -3.6875 16.1875 C-3.54723389 15.47916016 -3.40696777 14.77082031 -3.26245117 14.04101562 C-2.31452775 9.32255996 -1.25834263 4.64618819 0 0 Z " fill="#9F302D" transform="translate(137,333)"/>
<path d="M0 0 C9.07231852 1.26371173 17.40369483 3.96055067 26 7 C26 7.33 26 7.66 26 8 C19.375 8.25 19.375 8.25 16 6 C12.7704888 5.08746703 9.5371637 4.27649991 6.2734375 3.5 C4.50046266 3.05675629 2.74780374 2.53393527 1 2 C0.67 1.34 0.34 0.68 0 0 Z " fill="#EC9F83" transform="translate(520,220)"/>
<path d="M0 0 C0.66 0 1.32 0 2 0 C0.16490101 5.67212414 -3.02695413 9.68463608 -8 13 C-8.99 13 -9.98 13 -11 13 C-11 12.01 -11 11.02 -11 10 C-9.02 9.67 -7.04 9.34 -5 9 C-5.33 8.01 -5.66 7.02 -6 6 C-4.71034824 4.62437146 -3.37310707 3.29233607 -2 2 C-1.34 2 -0.68 2 0 2 C0 1.34 0 0.68 0 0 Z " fill="#FCE3DF" transform="translate(432,418)"/>
<path d="M0 0 C0.99 0.33 1.98 0.66 3 1 C4.1875 3.5625 4.1875 3.5625 5 6 C5.66 6 6.32 6 7 6 C7.33 10.95 7.66 15.9 8 21 C6.41806136 18.62709204 5.46910132 16.88037799 4.4921875 14.27734375 C4.22792969 13.57416016 3.96367188 12.87097656 3.69140625 12.14648438 C3.42199219 11.41751953 3.15257812 10.68855469 2.875 9.9375 C2.59785156 9.20466797 2.32070313 8.47183594 2.03515625 7.71679688 C0 2.25796644 0 2.25796644 0 0 Z " fill="#EDD7D0" transform="translate(532,307)"/>
<path d="M0 0 C0.66 0.99 1.32 1.98 2 3 C-0.36439204 6.71547321 -2.60699716 10.15425568 -6 13 C-6.99 13 -7.98 13 -9 13 C-9 13.66 -9 14.32 -9 15 C-9.66 14.67 -10.32 14.34 -11 14 C-10.34 13.01 -9.68 12.02 -9 11 C-8.34 11 -7.68 11 -7 11 C-6.773125 10.484375 -6.54625 9.96875 -6.3125 9.4375 C-4.5024447 6.07596873 -2.26003596 3.07088856 0 0 Z " fill="#E8D0C9" transform="translate(505,513)"/>
<path d="M0 0 C1.06396981 4.25587923 0.77540332 5.67464485 -0.4375 9.75 C-0.72496094 10.73484375 -1.01242187 11.7196875 -1.30859375 12.734375 C-1.65083984 13.85585938 -1.65083984 13.85585938 -2 15 C-2.66 15 -3.32 15 -4 15 C-4 15.66 -4 16.32 -4 17 C-4.99 16.67 -5.98 16.34 -7 16 C-4.69 10.72 -2.38 5.44 0 0 Z " fill="#ECD3CC" transform="translate(533,464)"/>
<path d="M0 0 C0.33 0.99 0.66 1.98 1 3 C-0.10067996 3.81721717 -1.20569731 4.62859451 -2.3125 5.4375 C-2.92738281 5.88996094 -3.54226563 6.34242188 -4.17578125 6.80859375 C-7.83294947 9.19710832 -11.12179764 9.16316818 -15.375 9.1875 C-16.49648438 9.20167969 -17.61796875 9.21585937 -18.7734375 9.23046875 C-21.94884842 9.00365368 -24.14234718 8.35390668 -27 7 C-27 6.34 -27 5.68 -27 5 C-25.8553125 5.495 -25.8553125 5.495 -24.6875 6 C-18.55966539 7.66178566 -12.5711048 7.9349472 -6.5625 5.75 C-4.05078973 4.03468567 -2.02797113 2.2619678 0 0 Z " fill="#B13C3D" transform="translate(278,424)"/>
<path d="M0 0 C4.66666667 4.66666667 9.33333333 9.33333333 14 14 C12.68 15.32 11.36 16.64 10 18 C9.62875 16.989375 9.2575 15.97875 8.875 14.9375 C7.30255426 11.20294138 5.09273502 8.58173128 2.3046875 5.67578125 C0.84269531 3.79795296 0.41493036 2.32259799 0 0 Z " fill="#B2160C" transform="translate(432,315)"/>
<path d="M0 0 C0.5534764 2.07553648 1 3.84365964 1 6 C-0.1446875 6.61875 -0.1446875 6.61875 -1.3125 7.25 C-4.62110506 9.4044405 -5.31791259 11.48955671 -7 15 C-9.1875 16.875 -9.1875 16.875 -11 18 C-11.66 17.67 -12.32 17.34 -13 17 C-12.39671875 16.27554687 -11.7934375 15.55109375 -11.171875 14.8046875 C-5.24723449 7.64907525 -5.24723449 7.64907525 0 0 Z " fill="#B3190E" transform="translate(265,306)"/>
<path d="M0 0 C2.34555025 2.34555025 2.87448137 4.12498136 3.9375 7.25 C5.06217393 10.47238035 6.19736277 13.38767687 7.75 16.4375 C9 19 9 19 9 23 C9.66 23.33 10.32 23.66 11 24 C10.34 24.66 9.68 25.32 9 26 C0 5.26213592 0 5.26213592 0 0 Z " fill="#9A2021" transform="translate(140,450)"/>
<path d="M0 0 C2.64 0.66 5.28 1.32 8 2 C8 2.66 8 3.32 8 4 C9.24716797 4.16435547 9.24716797 4.16435547 10.51953125 4.33203125 C12.14955078 4.56986328 12.14955078 4.56986328 13.8125 4.8125 C14.89144531 4.96332031 15.97039062 5.11414063 17.08203125 5.26953125 C20.06440991 6.01612403 21.14223479 6.62075684 23 9 C15.48005391 8.56615696 6.87517608 6.47542107 1.14453125 1.3359375 C0.57798828 0.67464844 0.57798828 0.67464844 0 0 Z " fill="#A12425" transform="translate(217,555)"/>
<path d="M0 0 C3.12395702 2.55596484 4.03166757 5.12667029 5 9 C5.07522969 11.33212027 5.09325876 13.6685311 5 16 C4.34 16 3.68 16 3 16 C2.690625 14.865625 2.38125 13.73125 2.0625 12.5625 C1.37075469 9.21224901 1.37075469 9.21224901 0 8 C-0.14115161 5.32941149 -0.04247107 2.67567762 0 0 Z " fill="#A11916" transform="translate(531,308)"/>
<path d="M0 0 C0.48984375 0.33773438 0.9796875 0.67546875 1.484375 1.0234375 C10.28785119 6.2751664 20.0055725 6.37880341 30 7 C30 7.33 30 7.66 30 8 C8.91566265 8.5060241 8.91566265 8.5060241 1.875 4 C0 2 0 2 0 0 Z " fill="#EEDBC7" transform="translate(91,284)"/>
<path d="M0 0 C0.66 0.33 1.32 0.66 2 1 C-0.475 5.455 -0.475 5.455 -3 10 C-3.33 8.68 -3.66 7.36 -4 6 C-5.65 6 -7.3 6 -9 6 C-9 5.34 -9 4.68 -9 4 C-7.54618103 3.30300448 -6.08677047 2.61766134 -4.625 1.9375 C-3.40683594 1.36322266 -3.40683594 1.36322266 -2.1640625 0.77734375 C-1.44992188 0.52082031 -0.73578125 0.26429688 0 0 Z " fill="#EFCFBD" transform="translate(161,275)"/>
<path d="M0 0 C1.32 0 2.64 0 4 0 C4 0.66 4 1.32 4 2 C2.42578125 2.97265625 2.42578125 2.97265625 0.3125 4.0625 C-4.64549276 6.98621864 -6.67341447 10.86585212 -9 16 C-9.83583327 13.62392051 -10.1842383 12.45550373 -9.22265625 10.078125 C-7.61132812 7.5390625 -7.61132812 7.5390625 -6 5 C-5.34 5 -4.68 5 -4 5 C-4 4.34 -4 3.68 -4 3 C-2.68 2.67 -1.36 2.34 0 2 C0 1.34 0 0.68 0 0 Z " fill="#E5A58A" transform="translate(186,118)"/>
<path d="M0 0 C2.875 0.6875 2.875 0.6875 6 2 C7.125 4.4375 7.125 4.4375 8 7 C10.01317219 8.80348078 10.01317219 8.80348078 12 10 C11.67 11.32 11.34 12.64 11 14 C9.16056628 12.04709472 7.32840869 10.08818082 5.5 8.125 C4.97535156 7.56941406 4.45070312 7.01382813 3.91015625 6.44140625 C0 2.2265625 0 2.2265625 0 0 Z " fill="#A32223" transform="translate(174,515)"/>
<path d="M0 0 C2.97 0.495 2.97 0.495 6 1 C6.33 1.99 6.66 2.98 7 4 C9.31 4 11.62 4 14 4 C14.33 5.65 14.66 7.3 15 9 C11.54253149 8.03512507 9.1875826 7.15185258 6.375 4.875 C3.98106642 2.58690381 3.98106642 2.58690381 0 3 C0 2.01 0 1.02 0 0 Z " fill="#EDA083" transform="translate(519,280)"/>
<path d="M0 0 C7.66795502 2.33937611 14.77137274 5.54768806 22 9 C18.71000098 10.64499951 15.84441705 8.95670235 12.46875 7.89453125 C9.72680358 6.90100952 7.43358734 5.59921454 5 4 C3.34630643 3.30177383 1.68272986 2.62501395 0 2 C0 1.34 0 0.68 0 0 Z " fill="#E8A78C" transform="translate(546,228)"/>
<path d="M0 0 C0.66 0 1.32 0 2 0 C2.4125 1.0725 2.825 2.145 3.25 3.25 C4.65276726 6.54750029 6.32244469 8.58156294 9 11 C9.99 12.485 9.99 12.485 11 14 C10.67 14.99 10.34 15.98 10 17 C8.34908416 14.89965153 6.70418762 12.79504167 5.0625 10.6875 C4.59392578 10.09259766 4.12535156 9.49769531 3.64257812 8.88476562 C1.61444041 6.27299116 0.05369199 4.16107597 -1 1 C-0.67 0.67 -0.34 0.34 0 0 Z " fill="#9E2323" transform="translate(163,498)"/>
<path d="M0 0 C0.66 0.33 1.32 0.66 2 1 C1.39305845 4.15330554 0.3583335 6.18888867 -1.5625 8.75 C-2.24505859 9.67039062 -2.24505859 9.67039062 -2.94140625 10.609375 C-3.29074219 11.06828125 -3.64007813 11.5271875 -4 12 C-4.97591583 8.61682513 -4.85856655 6.4342662 -4 3 C-2.68 2.67 -1.36 2.34 0 2 C0 1.34 0 0.68 0 0 Z " fill="#FA8B6D" transform="translate(262,305)"/>
<path d="M0 0 C0.82514784 2.83384108 1.07936233 5.16935251 0.87890625 8.109375 C0.83056641 8.86347656 0.78222656 9.61757813 0.73242188 10.39453125 C0.64831055 11.56048828 0.64831055 11.56048828 0.5625 12.75 C0.51029297 13.54277344 0.45808594 14.33554687 0.40429688 15.15234375 C0.27510676 17.10193997 0.13830035 19.05102886 0 21 C-3.10784031 16.33823953 -2.37442264 11.46513044 -2 6 C-1 2.25 -1 2.25 0 0 Z " fill="#F9D3CF" transform="translate(397,396)"/>
<path d="M0 0 C0 0.99 0 1.98 0 3 C-3.1063995 4.84398144 -5.05281472 5.2039901 -8.625 4.75 C-9.78902344 4.61851562 -9.78902344 4.61851562 -10.9765625 4.484375 C-13 4 -13 4 -15 2 C-14.16855469 1.93941406 -13.33710938 1.87882812 -12.48046875 1.81640625 C-10.85044922 1.69072266 -10.85044922 1.69072266 -9.1875 1.5625 C-8.10855469 1.48128906 -7.02960938 1.40007812 -5.91796875 1.31640625 C-2.94010095 1.09787539 -2.94010095 1.09787539 0 0 Z " fill="#AB0F0F" transform="translate(272,431)"/>
<path d="M0 0 C1.77155654 0.11429397 3.54226229 0.24183037 5.3125 0.375 C6.79169922 0.47941406 6.79169922 0.47941406 8.30078125 0.5859375 C11 1 11 1 14 3 C14 3.66 14 4.32 14 5 C14.99 5.33 15.98 5.66 17 6 C16.01 6.495 16.01 6.495 15 7 C12.40267775 6.09239638 9.90549025 5.12932108 7.375 4.0625 C6.31539062 3.62647461 6.31539062 3.62647461 5.234375 3.18164062 C3.48672427 2.46132512 1.74298085 1.73154306 0 1 C0 0.67 0 0.34 0 0 Z " fill="#E9E0CC" transform="translate(538,224)"/>
<path d="M0 0 C0.66 0 1.32 0 2 0 C0.53033642 3.39859703 -1.38037514 5.64963709 -4 8.25 C-4.70125 8.95640625 -5.4025 9.6628125 -6.125 10.390625 C-8 12 -8 12 -10 12 C-9.8125 10.1875 -9.8125 10.1875 -9 8 C-7.36368108 6.95107762 -5.69514137 5.95093297 -4 5 C-3.34 4.01 -2.68 3.02 -2 2 C-1.34 2 -0.68 2 0 2 C0 1.34 0 0.68 0 0 Z " fill="#A61313" transform="translate(493,525)"/>
<path d="M0 0 C-4.1689219 3.64780666 -9.44803736 6 -15 6 C-14 3 -14 3 -10.875 1.3125 C-7.20642866 -0.14581407 -3.94606007 -0.24159551 0 0 Z " fill="#EF9D81" transform="translate(148,281)"/>
<path d="M0 0 C7.32442609 0.73244261 11.3805093 2.00489716 17 7 C17 7.66 17 8.32 17 9 C15.0625 8.625 15.0625 8.625 13 8 C12.67 7.34 12.34 6.68 12 6 C10.00967415 5.05766495 7.98212971 4.19285188 5.9375 3.375 C4.83277344 2.92898437 3.72804688 2.48296875 2.58984375 2.0234375 C1.73519531 1.68570313 0.88054688 1.34796875 0 1 C0 0.67 0 0.34 0 0 Z " fill="#E9DECD" transform="translate(555,231)"/>
<path d="M0 0 C2.06947096 3.10420644 3.32446144 6.0318675 4.6875 9.5 C5.14511719 10.6446875 5.60273438 11.789375 6.07421875 12.96875 C7 16 7 16 6 19 C5.71125 18.401875 5.4225 17.80375 5.125 17.1875 C3.95257974 14.80672208 3.95257974 14.80672208 2 12 C2 10.68 2 9.36 2 8 C1.34 8 0.68 8 0 8 C0 5.36 0 2.72 0 0 Z " fill="#EAC7C2" transform="translate(141,456)"/>
<path d="M0 0 C3.87132028 0.57352893 6.08172796 2.48704352 9 5 C8.01 5.495 8.01 5.495 7 6 C8.32 7.32 9.64 8.64 11 10 C6.56156561 8.60506348 4.0565036 6.48101799 1 3 C0.67 2.01 0.34 1.02 0 0 Z " fill="#A41F23" transform="translate(319,422)"/>
<path d="M0 0 C-0.33 0.99 -0.66 1.98 -1 3 C-6.08086796 3.84681133 -10.84828377 4.09038099 -16 4 C-13.21530998 2.14353999 -11.7318584 1.54842185 -8.5625 0.875 C-7.41974609 0.62363281 -7.41974609 0.62363281 -6.25390625 0.3671875 C-4 0 -4 0 0 0 Z " fill="#EAC8C1" transform="translate(439,566)"/>
<path d="M0 0 C-2.64 3.63 -5.28 7.26 -8 11 C-9 8 -9 8 -8.0625 5.8125 C-7.711875 5.214375 -7.36125 4.61625 -7 4 C-6.34 4 -5.68 4 -5 4 C-5.33 2.68 -5.66 1.36 -6 0 C-4 -1 -4 -1 0 0 Z " fill="#A31F1D" transform="translate(506,513)"/>
<path d="M0 0 C3.48872415 1.16290805 4.09976864 2.13967609 6.1875 5.0625 C6.71730469 5.79597656 7.24710938 6.52945312 7.79296875 7.28515625 C8.19128906 7.85105469 8.58960938 8.41695313 9 9 C8.34 10.32 7.68 11.64 7 13 C5.5393715 10.35261084 5 9.10551666 5 6 C3.35 5.67 1.7 5.34 0 5 C0 3.35 0 1.7 0 0 Z " fill="#E7D6CE" transform="translate(162,502)"/>
<path d="M0 0 C2.10897238 8.07286968 2.10897238 8.07286968 -0.1171875 11.94140625 C-1.3594064 13.67840725 -2.63792059 15.35577556 -4 17 C-5 15 -5 15 -4.00390625 11.5234375 C-3.53099953 10.13802064 -3.05018356 8.75528453 -2.5625 7.375 C-2.31951172 6.66859375 -2.07652344 5.9621875 -1.82617188 5.234375 C-1.22412795 3.48726713 -0.61291983 1.74332214 0 0 Z " fill="#EACDC3" transform="translate(539,446)"/>
<path d="M0 0 C1.98 0 3.96 0 6 0 C6 0.99 6 1.98 6 3 C6.66 3.33 7.32 3.66 8 4 C9.34275169 4.98731742 10.67732273 5.98594743 12 7 C11.67 7.99 11.34 8.98 11 10 C9.16375669 8.52444734 7.3310715 7.04446569 5.5 5.5625 C4.4790625 4.73878906 3.458125 3.91507813 2.40625 3.06640625 C1.6121875 2.38449219 0.818125 1.70257812 0 1 C0 0.67 0 0.34 0 0 Z " fill="#A32120" transform="translate(195,538)"/>
<path d="M0 0 C1.65 0 3.3 0 5 0 C5.33 1.65 5.66 3.3 6 5 C7.32 4.67 8.64 4.34 10 4 C9.67 5.65 9.34 7.3 9 9 C7.87105124 8.06725891 6.74699124 7.12859878 5.625 6.1875 C4.99851563 5.66542969 4.37203125 5.14335938 3.7265625 4.60546875 C2 3 2 3 0 0 Z " fill="#A51D1F" transform="translate(186,529)"/>
<path d="M0 0 C2.44814179 3.0296652 4.09452853 6.07549599 5.6875 9.625 C6.12449219 10.58664062 6.56148437 11.54828125 7.01171875 12.5390625 C8 15 8 15 8 17 C7.01 17 6.02 17 5 17 C4.80664062 16.39671875 4.61328125 15.7934375 4.4140625 15.171875 C4.15367187 14.37265625 3.89328125 13.5734375 3.625 12.75 C3.36976563 11.96109375 3.11453125 11.1721875 2.8515625 10.359375 C2.06659478 8.00373091 2.06659478 8.00373091 0.8984375 5.953125 C0 4 0 4 0 0 Z " fill="#A02D2B" transform="translate(524,291)"/>
<path d="M0 0 C2 2 2 2 3.375 5.5 C4.65062753 8.9969689 4.65062753 8.9969689 7 10.4375 C9.13505943 11.13537279 9.13505943 11.13537279 12 11 C11.34 12.32 10.68 13.64 10 15 C5.67624925 13.14696397 2.86751654 10.73503308 0.75 6.5 C0 4 0 4 0 0 Z " fill="#E8A086" transform="translate(176,176)"/>
<path d="M0 0 C5.07648175 2.78387709 9.4833069 6.40829416 14 10 C10.34274913 10 9.04548589 8.95781236 6 7 C5.0925 6.525625 4.185 6.05125 3.25 5.5625 C1 4 1 4 0.1875 1.8125 C0.125625 1.214375 0.06375 0.61625 0 0 Z " fill="#EECEC5" transform="translate(201,544)"/>
<path d="M0 0 C1.15477893 3.46433679 0.80148365 4.68112799 -0.1875 8.125 C-0.54908203 9.45917969 -0.54908203 9.45917969 -0.91796875 10.8203125 C-2 13 -2 13 -4.11328125 13.8046875 C-4.73589844 13.86914062 -5.35851562 13.93359375 -6 14 C-4.50829734 9.0276578 -2.39542583 4.58154261 0 0 Z " fill="#A02524" transform="translate(154,290)"/>
<path d="M0 0 C0.66 0 1.32 0 2 0 C0.35433477 5.68502535 -2.29032784 10.76681636 -5 16 C-5.33 16 -5.66 16 -6 16 C-6 14.35 -6 12.7 -6 11 C-5.34 11 -4.68 11 -4 11 C-4 9.68 -4 8.36 -4 7 C-3.34 7 -2.68 7 -2 7 C-1.855625 6.21625 -1.71125 5.4325 -1.5625 4.625 C-1 2 -1 2 0 0 Z " fill="#F0D4CE" transform="translate(153,288)"/>
<path d="M0 0 C0.66 0 1.32 0 2 0 C2.33 1.65 2.66 3.3 3 5 C3.99 5.33 4.98 5.66 6 6 C6.70211894 7.65204456 7.36971413 9.31923769 8 11 C8.66 11.33 9.32 11.66 10 12 C9.67 12.66 9.34 13.32 9 14 C4.9918197 10.32583472 2.47408385 6.85653496 0 2 C0 1.34 0 0.68 0 0 Z " fill="#FADBD8" transform="translate(309,423)"/>
<path d="M0 0 C4.6305687 0.11005008 8.17443236 1.3964516 12.375 3.3125 C12.705 3.9725 13.035 4.6325 13.375 5.3125 C6.75 4.5625 6.75 4.5625 3.375 2.3125 C1.08851152 2.07142674 1.08851152 2.07142674 -1.3125 2.1875 C-2.12074219 2.20554687 -2.92898438 2.22359375 -3.76171875 2.2421875 C-4.37660156 2.26539063 -4.99148438 2.28859375 -5.625 2.3125 C-3.625 0.3125 -3.625 0.3125 0 0 Z " fill="#F7C6C4" transform="translate(261.625,383.6875)"/>
<path d="M0 0 C-1.49041773 3.79379058 -3.69062512 5.68343758 -7 8 C-7.66 8 -8.32 8 -9 8 C-9 8.66 -9 9.32 -9 10 C-10.65 10.33 -12.3 10.66 -14 11 C-3.32352941 0 -3.32352941 0 0 0 Z " fill="#B3180D" transform="translate(252,326)"/>
<path d="M0 0 C3.2531655 3.74114033 5.44374911 8.31315138 7 13 C6.67 13.66 6.34 14.32 6 15 C2.47086025 9.98627748 0.38528505 6.16456078 0 0 Z " fill="#F77D65" transform="translate(490,274)"/>
<path d="M0 0 C1.65 0 3.3 0 5 0 C5 0.99 5 1.98 5 3 C5.99 3.33 6.98 3.66 8 4 C9.25 5.875 9.25 5.875 10 8 C9.67 8.99 9.34 9.98 9 11 C7.49703315 9.35687553 5.99769719 7.71042916 4.5 6.0625 C3.6646875 5.14597656 2.829375 4.22945312 1.96875 3.28515625 C0 1 0 1 0 0 Z " fill="#EAE4D5" transform="translate(584,248)"/>
<path d="M0 0 C-3.61186839 2.74501997 -7.30395263 5.37012014 -11 8 C-11 6.35 -11 4.7 -11 3 C-7.14243493 0.84694043 -4.44870215 -0.39253254 0 0 Z " fill="#A72023" transform="translate(258,384)"/>
<path d="M0 0 C-1.4562545 0.67119549 -2.91507867 1.33681807 -4.375 2 C-5.59316406 2.556875 -5.59316406 2.556875 -6.8359375 3.125 C-9 4 -9 4 -11 4 C-11 4.66 -11 5.32 -11 6 C-12.32 6 -13.64 6 -15 6 C-15 5.34 -15 4.68 -15 4 C-12.35261084 2.5393715 -11.10551666 2 -8 2 C-8 1.34 -8 0.68 -8 0 C-4.71303767 -0.79953138 -3.28976808 -1.09658936 0 0 Z " fill="#ED9F82" transform="translate(163,275)"/>
<path d="M0 0 C2.6584565 2.6584565 4.28511996 4.87307766 6.1875 8.0625 C6.71730469 8.94035156 7.24710938 9.81820313 7.79296875 10.72265625 C9 13 9 13 9 15 C8.34 15 7.68 15 7 15 C6.34 13.02 5.68 11.04 5 9 C4.34 9 3.68 9 3 9 C2.01 6.03 1.02 3.06 0 0 Z " fill="#EDC8BF" transform="translate(154,487)"/>
<path d="M0 0 C0.66 0.33 1.32 0.66 2 1 C2 1.66 2 2.32 2 3 C1.34 3 0.68 3 0 3 C0 3.99 0 4.98 0 6 C-0.66 6 -1.32 6 -2 6 C-2.4021875 7.7015625 -2.4021875 7.7015625 -2.8125 9.4375 C-3.204375 10.613125 -3.59625 11.78875 -4 13 C-4.99 13.33 -5.98 13.66 -7 14 C-5.23570801 9.02790438 -2.6060834 4.56561939 0 0 Z " fill="#EECDC5" transform="translate(525,482)"/>
<path d="M0 0 C4.19360449 0.67097672 7.40334352 2.8558394 11 5 C9.625 6.5 9.625 6.5 8 8 C7.34 8 6.68 8 6 8 C5.87625 7.071875 5.87625 7.071875 5.75 6.125 C5.20005805 3.8234856 5.20005805 3.8234856 3 2.875 C2.34 2.58625 1.68 2.2975 1 2 C0.67 1.34 0.34 0.68 0 0 Z " fill="#B61C11" transform="translate(487,261)"/>
<path d="M0 0 C3.21043882 1.38188453 5.04936365 2.92421903 7.25 5.625 C8.03117188 6.57246094 8.03117188 6.57246094 8.828125 7.5390625 C9.40820312 8.26222656 9.40820312 8.26222656 10 9 C6.84859577 8.65930765 5.39218439 8.41923159 3.1875 6.0625 C2 4 2 4 2 2 C1.34 2 0.68 2 0 2 C0 1.34 0 0.68 0 0 Z " fill="#EAA78D" transform="translate(582,248)"/>
<path d="M0 0 C1.3125 2.0625 1.3125 2.0625 2 4 C-2.571279 3.45144652 -6.67435795 2.58255197 -11 1 C-10.38125 0.855625 -9.7625 0.71125 -9.125 0.5625 C-3.14214464 -1.02119701 -3.14214464 -1.02119701 0 0 Z " fill="#EADCCA" transform="translate(536,220)"/>
<path d="M0 0 C-1 2 -1 2 -3.5625 3.125 C-7.58289462 4.14837318 -10.86509813 4.14258282 -15 4 C-12.18438333 2.52790818 -9.38026161 1.34273182 -6.375 0.3125 C-5.59898437 0.04050781 -4.82296875 -0.23148438 -4.0234375 -0.51171875 C-2 -1 -2 -1 0 0 Z " fill="#E7BBB1" transform="translate(454,562)"/>
<path d="M0 0 C0.99 0.33 1.98 0.66 3 1 C-0.12621626 4.39417765 -2.56541027 6.6062718 -7 8 C-7 7.01 -7 6.02 -7 5 C-4.69 3.68 -2.38 2.36 0 1 C0 0.67 0 0.34 0 0 Z " fill="#A82221" transform="translate(468,548)"/>
<path d="M0 0 C0.33 0.66 0.66 1.32 1 2 C-0.33332095 5.99996286 -2.4957827 6.83782337 -6 9 C-6.66 8.67 -7.32 8.34 -8 8 C-3.375 2.25 -3.375 2.25 0 0 Z " fill="#EBDAD2" transform="translate(477,544)"/>
<path d="M0 0 C0.67095703 0.58007812 0.67095703 0.58007812 1.35546875 1.171875 C4.8521026 4.18390075 8.37407463 7.14321031 12 10 C5.89353574 9.88026541 5.89353574 9.88026541 3.421875 7.4453125 C0 2.70581897 0 2.70581897 0 0 Z " fill="#A5292B" transform="translate(312,431)"/>
<path d="M0 0 C5.8997555 5.58924205 5.8997555 5.58924205 7 9 C6.625 11.25 6.625 11.25 6 13 C6 12.34 6 11.68 6 11 C5.01 10.67 4.02 10.34 3 10 C3 8.35 3 6.7 3 5 C2.34 5 1.68 5 1 5 C0.67 3.35 0.34 1.7 0 0 Z " fill="#F9D6D3" transform="translate(275,389)"/>
<path d="M0 0 C0.33 0.99 0.66 1.98 1 3 C0.04454013 4.78352509 -0.91712287 6.56716093 -1.9921875 8.28125 C-3.1615802 10.13961941 -3.1615802 10.13961941 -4 13 C-4.66 13 -5.32 13 -6 13 C-5.57674417 11.20491499 -5.13589265 9.4139717 -4.6875 7.625 C-4.44386719 6.62726563 -4.20023437 5.62953125 -3.94921875 4.6015625 C-3 2 -3 2 0 0 Z " fill="#A11F23" transform="translate(400,389)"/>
<path d="M0 0 C0 0.66 0 1.32 0 2 C-10.55808656 1.03644647 -10.55808656 1.03644647 -15 0 C-15 -0.33 -15 -0.66 -15 -1 C-9.63046194 -2.26342072 -4.86978336 -2.99678976 0 0 Z " fill="#E9E3D5" transform="translate(506,213)"/>
<path d="M0 0 C0.33 0.99 0.66 1.98 1 3 C-3.85359495 7.01676824 -9.04972335 6.28136159 -15 6 C-15 5.67 -15 5.34 -15 5 C-14.25234375 4.89042969 -13.5046875 4.78085937 -12.734375 4.66796875 C-11.74953125 4.50941406 -10.7646875 4.35085938 -9.75 4.1875 C-8.28820312 3.96126953 -8.28820312 3.96126953 -6.796875 3.73046875 C-3.87677662 2.96781736 -2.25794185 1.96225899 0 0 Z " fill="#AC3434" transform="translate(428,427)"/>
<path d="M0 0 C0.33 0 0.66 0 1 0 C1.1875 2.3125 1.1875 2.3125 1 5 C-0.3125 6.4375 -0.3125 6.4375 -2 8 C-3.04622875 9.97620986 -4.05439935 11.9737129 -5 14 C-5.66 14 -6.32 14 -7 14 C-5.23570801 9.02790438 -2.6060834 4.56561939 0 0 Z " fill="#9E2725" transform="translate(162,276)"/>
<path d="M0 0 C-3.69172595 3.53790403 -7.09390595 3.59115883 -12 4 C-5.27272727 -1.63636364 -5.27272727 -1.63636364 0 0 Z " fill="#EDD9C7" transform="translate(152,282)"/>
<path d="M0 0 C0.66 1.32 1.32 2.64 2 4 C0.02 5.98 -1.96 7.96 -4 10 C-4.66 9.67 -5.32 9.34 -6 9 C-4.02 6.03 -2.04 3.06 0 0 Z " fill="#E2EADE" transform="translate(516,500)"/>
<path d="M0 0 C0.66 0.33 1.32 0.66 2 1 C-2.105466 4.97185616 -5.02968261 7.70876501 -11 8 C-7.79086387 4.63804787 -4.08636437 2.20035005 0 0 Z " fill="#FBDCD8" transform="translate(276,424)"/>
<path d="M0 0 C1.32 0.33 2.64 0.66 4 1 C4.91657981 6.38490641 5.11138159 11.54230189 5 17 C4.67 17 4.34 17 4 17 C3.87882812 16.19175781 3.75765625 15.38351562 3.6328125 14.55078125 C3.46523438 13.48214844 3.29765625 12.41351563 3.125 11.3125 C2.96257812 10.25675781 2.80015625 9.20101563 2.6328125 8.11328125 C2.04106931 5.20205086 1.1968194 2.71044393 0 0 Z " fill="#9F292A" transform="translate(279,393)"/>
<path d="M0 0 C1.32 0 2.64 0 4 0 C4 3 4 3 2.125 5.1875 C0 7 0 7 -2 7 C-1.125 1.125 -1.125 1.125 0 0 Z " fill="#AE1409" transform="translate(403,279)"/>
<path d="M0 0 C2.9375 0.75 2.9375 0.75 6 2 C6.875 4.125 6.875 4.125 7 6 C7.66 6 8.32 6 9 6 C8.67 6.66 8.34 7.32 8 8 C5.03 6.02 2.06 4.04 -1 2 C-0.67 1.34 -0.34 0.68 0 0 Z " fill="#FA856B" transform="translate(499,265)"/>
<path d="M0 0 C0.66 0 1.32 0 2 0 C0.4114658 4.28904235 -2.43127368 6.32345526 -6 9 C-6.66 9 -7.32 9 -8 9 C-7.67 8.01 -7.34 7.02 -7 6 C-6.01 6 -5.02 6 -4 6 C-4 5.34 -4 4.68 -4 4 C-3.34 4 -2.68 4 -2 4 C-2 3.34 -2 2.68 -2 2 C-1.34 2 -0.68 2 0 2 C0 1.34 0 0.68 0 0 Z " fill="#9E2024" transform="translate(360,422)"/>
<path d="M0 0 C1.65 0 3.3 0 5 0 C4.67 2.31 4.34 4.62 4 7 C3.34 7 2.68 7 2 7 C1.34 4.69 0.68 2.38 0 0 Z " fill="#E5E6D9" transform="translate(152,281)"/>
<path d="M0 0 C1.98 0.99 1.98 0.99 4 2 C4.609375 4.3828125 4.609375 4.3828125 4.75 7.125 C4.80671875 8.03507812 4.8634375 8.94515625 4.921875 9.8828125 C4.94765625 10.58148438 4.9734375 11.28015625 5 12 C4.34 12 3.68 12 3 12 C2.01 8.04 1.02 4.08 0 0 Z " fill="#9F2122" transform="translate(315,409)"/>
<path d="M0 0 C0.33 0.66 0.66 1.32 1 2 C0.34 2 -0.32 2 -1 2 C-1.33 2.99 -1.66 3.98 -2 5 C-4.31 5.33 -6.62 5.66 -9 6 C-6.45543849 3.03134491 -3.51005335 1.6380249 0 0 Z " fill="#B61B10" transform="translate(374,343)"/>
<path d="M0 0 C0.33 0.99 0.66 1.98 1 3 C-0.65 4.65 -2.3 6.3 -4 8 C-4.99 7.67 -5.98 7.34 -7 7 C-6.67 6.34 -6.34 5.68 -6 5 C-5.34 5 -4.68 5 -4 5 C-4 4.34 -4 3.68 -4 3 C-2 1.375 -2 1.375 0 0 Z " fill="#B4150C" transform="translate(493,322)"/>
<path d="M0 0 C0.33 0 0.66 0 1 0 C1.3125 2.3125 1.3125 2.3125 1 5 C-1.3125 6.875 -1.3125 6.875 -4 8 C-4.99 7.67 -5.98 7.34 -7 7 C-4.66666667 4.66666667 -2.33333333 2.33333333 0 0 Z " fill="#EADDCC" transform="translate(500,184)"/>
<path d="M0 0 C0.66 0.33 1.32 0.66 2 1 C-0.97 5.95 -0.97 5.95 -4 11 C-5 8 -5 8 -4 5 C-3.34 5 -2.68 5 -2 5 C-1.7834375 4.0409375 -1.7834375 4.0409375 -1.5625 3.0625 C-1 1 -1 1 0 0 Z " fill="#9E2625" transform="translate(513,499)"/>
<path d="M0 0 C0.33 0 0.66 0 1 0 C3.28571429 8.42857143 3.28571429 8.42857143 3 13 C2.34 13 1.68 13 1 13 C-0.00496852 9.98509443 -0.10335303 7.95818308 -0.0625 4.8125 C-0.05347656 3.91144531 -0.04445312 3.01039063 -0.03515625 2.08203125 C-0.02355469 1.39496094 -0.01195312 0.70789063 0 0 Z " fill="#F0C3C4" transform="translate(242,403)"/>
<path d="M0 0 C-1.375 2.5 -1.375 2.5 -3 5 C-3.66 5 -4.32 5 -5 5 C-5 3.68 -5 2.36 -5 1 C-5.66 0.67 -6.32 0.34 -7 0 C-3.86650268 -1.04449911 -3.01031744 -0.93423645 0 0 Z " fill="#A61315" transform="translate(247,393)"/>
<path d="M0 0 C3.63 1.65 7.26 3.3 11 5 C11 5.33 11 5.66 11 6 C3.375 5.125 3.375 5.125 0 4 C0 2.68 0 1.36 0 0 Z " fill="#B3170C" transform="translate(446,329)"/>
<path d="M0 0 C2.475 0.495 2.475 0.495 5 1 C5.33 2.98 5.66 4.96 6 7 C5.01 7 4.02 7 3 7 C0.64276511 4.46815512 0 3.52809907 0 0 Z " fill="#FA896C" transform="translate(410,280)"/>
<path d="M0 0 C0 0.66 0 1.32 0 2 C-2.47346304 4.47346304 -3.70761168 4.98313144 -7.25 5.1875 C-8.1575 5.125625 -9.065 5.06375 -10 5 C-8.28489314 1.56978628 -3.75681361 0 0 0 Z " fill="#E9A78D" transform="translate(122,224)"/>
<path d="M0 0 C2.475 0.495 2.475 0.495 5 1 C5.66 2.98 6.32 4.96 7 7 C3.17053157 5.54744301 1.87949705 3.57104439 0 0 Z " fill="#FDE1DD" transform="translate(399,422)"/>
<path d="M0 0 C-0.33 0.99 -0.66 1.98 -1 3 C-3.64 3.33 -6.28 3.66 -9 4 C-9 3.34 -9 2.68 -9 2 C-2.25 0 -2.25 0 0 0 Z " fill="#B72015" transform="translate(228,342)"/>
<path d="M0 0 C0.66 0 1.32 0 2 0 C1.55005243 1.79379098 1.08975857 3.58498928 0.625 5.375 C0.36976563 6.37273437 0.11453125 7.37046875 -0.1484375 8.3984375 C-1 11 -1 11 -3 13 C-2.88490339 11.58249437 -2.75746342 10.16598831 -2.625 8.75 C-2.55539063 7.96109375 -2.48578125 7.1721875 -2.4140625 6.359375 C-1.98492887 3.914123 -1.21399362 2.15163097 0 0 Z " fill="#EEC9C3" transform="translate(143,310)"/>
<path d="M0 0 C3.3 0.99 6.6 1.98 10 3 C10 3.33 10 3.66 10 4 C3.375 4.25 3.375 4.25 0 2 C0 1.34 0 0.68 0 0 Z " fill="#E9A78D" transform="translate(536,224)"/>
<path d="M0 0 C0.33 0 0.66 0 1 0 C1.21192221 5.19209404 0.5912689 9.126739 -1 14 C-1.33 14 -1.66 14 -2 14 C-3.125 8.25 -3.125 8.25 -2 6 C-1.34 6 -0.68 6 0 6 C0 4.02 0 2.04 0 0 Z " fill="#F2BEBC" transform="translate(374,410)"/>
<path d="M0 0 C0.94875 0.04125 1.8975 0.0825 2.875 0.125 C2.875 0.455 2.875 0.785 2.875 1.125 C1.225 1.125 -0.425 1.125 -2.125 1.125 C-2.785 4.095 -3.445 7.065 -4.125 10.125 C-4.455 10.125 -4.785 10.125 -5.125 10.125 C-5.3203125 4.0703125 -5.3203125 4.0703125 -5.125 2.125 C-3.125 0.125 -3.125 0.125 0 0 Z " fill="#FAC6C1" transform="translate(312.125,408.875)"/>
<path d="M0 0 C2.31 0.66 4.62 1.32 7 2 C7.33 3.32 7.66 4.64 8 6 C4.08597051 4.73058503 2.20927127 3.48832306 0 0 Z " fill="#EBDECD" transform="translate(576,242)"/>
<path d="M0 0 C1.2077558 3.62326739 0.54311128 4.64146369 -1 8 C-1.66 7.67 -2.32 7.34 -3 7 C-2.625 4.0625 -2.625 4.0625 -2 1 C-1.34 0.67 -0.68 0.34 0 0 Z " fill="#9E1519" transform="translate(536,452)"/>
<path d="M0 0 C3.06393013 -0.25532751 4.63233212 -0.21861333 7.3125 1.375 C7.869375 1.91125 8.42625 2.4475 9 3 C9 3.66 9 4.32 9 5 C5.54074837 3.7508258 2.85306797 2.32472205 0 0 Z " fill="#EAA488" transform="translate(534,289)"/>
<path d="M0 0 C-0.625 1.9375 -0.625 1.9375 -2 4 C-5.125 4.75 -5.125 4.75 -8 5 C-3.16129032 0 -3.16129032 0 0 0 Z " fill="#E8A78C" transform="translate(112,229)"/>
<path d="M0 0 C0.495 0.391875 0.99 0.78375 1.5 1.1875 C-6.53571429 3.46428571 -6.53571429 3.46428571 -10.5 2.1875 C-3.28774617 -1.06851751 -3.28774617 -1.06851751 0 0 Z " fill="#AF0D10" transform="translate(443.5,561.8125)"/>
<path d="M0 0 C0.33 0.99 0.66 1.98 1 3 C-1.31 4.65 -3.62 6.3 -6 8 C-6.66 7.67 -7.32 7.34 -8 7 C-5.36 4.69 -2.72 2.38 0 0 Z " fill="#A52B2B" transform="translate(278,424)"/>
<path d="M0 0 C2.31 0 4.62 0 7 0 C7.33 0.66 7.66 1.32 8 2 C5.36 2.66 2.72 3.32 0 4 C0 2.68 0 1.36 0 0 Z " fill="#AB292C" transform="translate(307,407)"/>
<path d="M0 0 C4.8 2.46153846 4.8 2.46153846 5.8125 5.1875 C5.874375 5.785625 5.93625 6.38375 6 7 C1.2 4.53846154 1.2 4.53846154 0.1875 1.8125 C0.125625 1.214375 0.06375 0.61625 0 0 Z " fill="#FDE8E6" transform="translate(427,390)"/>
<path d="M0 0 C0.66 0.33 1.32 0.66 2 1 C0.1875 3.5 0.1875 3.5 -2 6 C-2.99 6 -3.98 6 -5 6 C-3.86695008 2.60085025 -2.87481525 1.94745549 0 0 Z " fill="#F9D2CD" transform="translate(406,386)"/>
<path d="M0 0 C2.97 0.33 5.94 0.66 9 1 C9.33 2.32 9.66 3.64 10 5 C9.46375 4.71125 8.9275 4.4225 8.375 4.125 C5.64719516 2.83288192 2.87387282 1.91441408 0 1 C0 0.67 0 0.34 0 0 Z " fill="#A72B2B" transform="translate(419,384)"/>
<path d="M0 0 C2.97 0.99 5.94 1.98 9 3 C8.67 3.66 8.34 4.32 8 5 C4.5625 4.1875 4.5625 4.1875 1 3 C0.67 2.01 0.34 1.02 0 0 Z " fill="#B01A0F" transform="translate(188,337)"/>
<path d="M0 0 C2.50298434 2.93828597 3.46930939 5.17902761 4 9 C3.01 8.34 2.02 7.68 1 7 C1 6.01 1 5.02 1 4 C0.34 4 -0.32 4 -1 4 C-0.67 2.68 -0.34 1.36 0 0 Z " fill="#9C1F1D" transform="translate(520,284)"/>
<path d="M0 0 C0.99 0.33 1.98 0.66 3 1 C1.75023244 4.65316671 1.32901247 5.78065836 -2 8 C-1.47731534 5.23723823 -0.89130413 2.6739124 0 0 Z " fill="#F9866A" transform="translate(179,282)"/>
<path d="M0 0 C3 1 3 1 4.6875 4.0625 C5.120625 5.031875 5.55375 6.00125 6 7 C5.01 7 4.02 7 3 7 C3 6.34 3 5.68 3 5 C2.01 4.34 1.02 3.68 0 3 C0 2.01 0 1.02 0 0 Z " fill="#B21B10" transform="translate(410,284)"/>
<path d="M0 0 C0.66 0.33 1.32 0.66 2 1 C1.67 1.66 1.34 2.32 1 3 C1.99 3.33 2.98 3.66 4 4 C3.34 4.66 2.68 5.32 2 6 C0.02 4.68 -1.96 3.36 -4 2 C-2.125 0.9375 -2.125 0.9375 0 0 Z " fill="#F68468" transform="translate(515,274)"/>
<path d="M0 0 C0.66 0 1.32 0 2 0 C0.50902342 3.7952131 -1.75700849 5.61042731 -5 8 C-4.1875 5.5625 -4.1875 5.5625 -3 3 C-2.01 2.67 -1.02 2.34 0 2 C0 1.34 0 0.68 0 0 Z " fill="#94221F" transform="translate(493,525)"/>
<path d="M0 0 C2 1 2 1 2 1 Z M-5 2 C-3.68 2.33 -2.36 2.66 -1 3 C-2.485 4.485 -2.485 4.485 -4 6 C-4.99 5.67 -5.98 5.34 -7 5 C-6.34 4.01 -5.68 3.02 -5 2 Z " fill="#FDECEA" transform="translate(405,390)"/>
<path d="M0 0 C-0.33 0.66 -0.66 1.32 -1 2 C-4.37462715 1.45276317 -6.08235 0.9451 -9 -1 C-5.79937313 -2.60031344 -3.27728194 -1.03173691 0 0 Z " fill="#F98469" transform="translate(330,347)"/>
<path d="M0 0 C2.91517292 1.07401108 4.77810176 1.77810176 7 4 C5.1875 4.6875 5.1875 4.6875 3 5 C1.25 3.6875 1.25 3.6875 0 2 C0 1.34 0 0.68 0 0 Z " fill="#B51910" transform="translate(314,343)"/>
<path d="M0 0 C0.66 1.32 1.32 2.64 2 4 C0.35 4.66 -1.3 5.32 -3 6 C-2.625 3.5625 -2.625 3.5625 -2 1 C-1.34 0.67 -0.68 0.34 0 0 Z " fill="#AC0D0D" transform="translate(157,289)"/>
<path d="M0 0 C2.6855594 2.6855594 3.06049974 5.37621328 4 9 C3.01 8.67 2.02 8.34 1 8 C0.67 5.36 0.34 2.72 0 0 Z " fill="#F98169" transform="translate(485,263)"/>
<path d="M0 0 C0 1.65 0 3.3 0 5 C-3.875 3.25 -3.875 3.25 -5 1 C-3 0 -3 0 0 0 Z " fill="#A91005" transform="translate(183,268)"/>
</svg>
